<svg xmlns="http://www.w3.org/2000/svg" viewBox="0 0 320 324" width="320" height="324" style="background:#060d1a" data-symbol="Ba" data-view="orbital">
<defs>
  <filter id="glow"><feGaussianBlur stdDeviation="1.8" result="b"/>
  <feMerge><feMergeNode in="b"/><feMergeNode in="SourceGraphic"/></feMerge></filter>
  <radialGradient id="bg">
    <stop offset="0%" stop-color="#0d1730"/>
    <stop offset="100%" stop-color="#060d1a"/>
  </radialGradient>
</defs>
<rect width="320" height="324" fill="url(#bg)"/>
<text x="160" y="13" text-anchor="middle" font-family="monospace" font-size="9" fill="#00c900" opacity="0.9">Ba — orbitales</text>
<text x="10" y="47.0" font-family="monospace" font-size="7" fill="#446" opacity="0.7">n=1</text>
<text x="32" y="33.0" font-family="monospace" font-size="6.5" fill="#00ffff" opacity="0.85">1s</text>
<rect x="32.0" y="35.0" width="18" height="18" fill="none" stroke="#00ffff" stroke-width="0.7" opacity="0.35" rx="3"/>
<circle cx="37.8" cy="44.0" r="3.8" fill="#00ffff" filter="url(#glow)" opacity="0.9"/>
<text x="37.8" y="46.5" text-anchor="middle" font-size="5.5" font-family="sans-serif" fill="#060d1a" font-weight="bold">↑</text>
<circle cx="44.2" cy="44.0" r="3.8" fill="#00ffff" filter="url(#glow)" opacity="0.9"/>
<text x="44.2" y="46.5" text-anchor="middle" font-size="5.5" font-family="sans-serif" fill="#060d1a" font-weight="bold">↓</text>
<text x="54.0" y="47.0" font-family="monospace" font-size="6.5" fill="#00ffff" opacity="0.55">2e⁻</text>
<text x="10" y="95.0" font-family="monospace" font-size="7" fill="#446" opacity="0.7">n=2</text>
<text x="32" y="81.0" font-family="monospace" font-size="6.5" fill="#00ffff" opacity="0.85">2s</text>
<rect x="32.0" y="83.0" width="18" height="18" fill="none" stroke="#00ffff" stroke-width="0.7" opacity="0.35" rx="3"/>
<circle cx="37.8" cy="92.0" r="3.8" fill="#00ffff" filter="url(#glow)" opacity="0.9"/>
<text x="37.8" y="94.5" text-anchor="middle" font-size="5.5" font-family="sans-serif" fill="#060d1a" font-weight="bold">↑</text>
<circle cx="44.2" cy="92.0" r="3.8" fill="#00ffff" filter="url(#glow)" opacity="0.9"/>
<text x="44.2" y="94.5" text-anchor="middle" font-size="5.5" font-family="sans-serif" fill="#060d1a" font-weight="bold">↓</text>
<text x="54.0" y="95.0" font-family="monospace" font-size="6.5" fill="#00ffff" opacity="0.55">2e⁻</text>
<text x="76" y="81.0" font-family="monospace" font-size="6.5" fill="#ff4fff" opacity="0.85">2p</text>
<rect x="76.0" y="83.0" width="18" height="18" fill="none" stroke="#ff4fff" stroke-width="0.7" opacity="0.35" rx="3"/>
<circle cx="81.8" cy="92.0" r="3.8" fill="#ff4fff" filter="url(#glow)" opacity="0.9"/>
<text x="81.8" y="94.5" text-anchor="middle" font-size="5.5" font-family="sans-serif" fill="#060d1a" font-weight="bold">↑</text>
<circle cx="88.2" cy="92.0" r="3.8" fill="#ff4fff" filter="url(#glow)" opacity="0.9"/>
<text x="88.2" y="94.5" text-anchor="middle" font-size="5.5" font-family="sans-serif" fill="#060d1a" font-weight="bold">↓</text>
<rect x="96.0" y="83.0" width="18" height="18" fill="none" stroke="#ff4fff" stroke-width="0.7" opacity="0.35" rx="3"/>
<circle cx="101.8" cy="92.0" r="3.8" fill="#ff4fff" filter="url(#glow)" opacity="0.9"/>
<text x="101.8" y="94.5" text-anchor="middle" font-size="5.5" font-family="sans-serif" fill="#060d1a" font-weight="bold">↑</text>
<circle cx="108.2" cy="92.0" r="3.8" fill="#ff4fff" filter="url(#glow)" opacity="0.9"/>
<text x="108.2" y="94.5" text-anchor="middle" font-size="5.5" font-family="sans-serif" fill="#060d1a" font-weight="bold">↓</text>
<rect x="116.0" y="83.0" width="18" height="18" fill="none" stroke="#ff4fff" stroke-width="0.7" opacity="0.35" rx="3"/>
<circle cx="121.8" cy="92.0" r="3.8" fill="#ff4fff" filter="url(#glow)" opacity="0.9"/>
<text x="121.8" y="94.5" text-anchor="middle" font-size="5.5" font-family="sans-serif" fill="#060d1a" font-weight="bold">↑</text>
<circle cx="128.2" cy="92.0" r="3.8" fill="#ff4fff" filter="url(#glow)" opacity="0.9"/>
<text x="128.2" y="94.5" text-anchor="middle" font-size="5.5" font-family="sans-serif" fill="#060d1a" font-weight="bold">↓</text>
<text x="138.0" y="95.0" font-family="monospace" font-size="6.5" fill="#ff4fff" opacity="0.55">6e⁻</text>
<text x="10" y="143.0" font-family="monospace" font-size="7" fill="#446" opacity="0.7">n=3</text>
<text x="32" y="129.0" font-family="monospace" font-size="6.5" fill="#00ffff" opacity="0.85">3s</text>
<rect x="32.0" y="131.0" width="18" height="18" fill="none" stroke="#00ffff" stroke-width="0.7" opacity="0.35" rx="3"/>
<circle cx="37.8" cy="140.0" r="3.8" fill="#00ffff" filter="url(#glow)" opacity="0.9"/>
<text x="37.8" y="142.5" text-anchor="middle" font-size="5.5" font-family="sans-serif" fill="#060d1a" font-weight="bold">↑</text>
<circle cx="44.2" cy="140.0" r="3.8" fill="#00ffff" filter="url(#glow)" opacity="0.9"/>
<text x="44.2" y="142.5" text-anchor="middle" font-size="5.5" font-family="sans-serif" fill="#060d1a" font-weight="bold">↓</text>
<text x="54.0" y="143.0" font-family="monospace" font-size="6.5" fill="#00ffff" opacity="0.55">2e⁻</text>
<text x="76" y="129.0" font-family="monospace" font-size="6.5" fill="#ff4fff" opacity="0.85">3p</text>
<rect x="76.0" y="131.0" width="18" height="18" fill="none" stroke="#ff4fff" stroke-width="0.7" opacity="0.35" rx="3"/>
<circle cx="81.8" cy="140.0" r="3.8" fill="#ff4fff" filter="url(#glow)" opacity="0.9"/>
<text x="81.8" y="142.5" text-anchor="middle" font-size="5.5" font-family="sans-serif" fill="#060d1a" font-weight="bold">↑</text>
<circle cx="88.2" cy="140.0" r="3.8" fill="#ff4fff" filter="url(#glow)" opacity="0.9"/>
<text x="88.2" y="142.5" text-anchor="middle" font-size="5.5" font-family="sans-serif" fill="#060d1a" font-weight="bold">↓</text>
<rect x="96.0" y="131.0" width="18" height="18" fill="none" stroke="#ff4fff" stroke-width="0.7" opacity="0.35" rx="3"/>
<circle cx="101.8" cy="140.0" r="3.8" fill="#ff4fff" filter="url(#glow)" opacity="0.9"/>
<text x="101.8" y="142.5" text-anchor="middle" font-size="5.5" font-family="sans-serif" fill="#060d1a" font-weight="bold">↑</text>
<circle cx="108.2" cy="140.0" r="3.8" fill="#ff4fff" filter="url(#glow)" opacity="0.9"/>
<text x="108.2" y="142.5" text-anchor="middle" font-size="5.5" font-family="sans-serif" fill="#060d1a" font-weight="bold">↓</text>
<rect x="116.0" y="131.0" width="18" height="18" fill="none" stroke="#ff4fff" stroke-width="0.7" opacity="0.35" rx="3"/>
<circle cx="121.8" cy="140.0" r="3.8" fill="#ff4fff" filter="url(#glow)" opacity="0.9"/>
<text x="121.8" y="142.5" text-anchor="middle" font-size="5.5" font-family="sans-serif" fill="#060d1a" font-weight="bold">↑</text>
<circle cx="128.2" cy="140.0" r="3.8" fill="#ff4fff" filter="url(#glow)" opacity="0.9"/>
<text x="128.2" y="142.5" text-anchor="middle" font-size="5.5" font-family="sans-serif" fill="#060d1a" font-weight="bold">↓</text>
<text x="138.0" y="143.0" font-family="monospace" font-size="6.5" fill="#ff4fff" opacity="0.55">6e⁻</text>
<text x="160" y="129.0" font-family="monospace" font-size="6.5" fill="#ffa500" opacity="0.85">3d</text>
<rect x="160.0" y="131.0" width="18" height="18" fill="none" stroke="#ffa500" stroke-width="0.7" opacity="0.35" rx="3"/>
<circle cx="165.8" cy="140.0" r="3.8" fill="#ffa500" filter="url(#glow)" opacity="0.9"/>
<text x="165.8" y="142.5" text-anchor="middle" font-size="5.5" font-family="sans-serif" fill="#060d1a" font-weight="bold">↑</text>
<circle cx="172.2" cy="140.0" r="3.8" fill="#ffa500" filter="url(#glow)" opacity="0.9"/>
<text x="172.2" y="142.5" text-anchor="middle" font-size="5.5" font-family="sans-serif" fill="#060d1a" font-weight="bold">↓</text>
<rect x="180.0" y="131.0" width="18" height="18" fill="none" stroke="#ffa500" stroke-width="0.7" opacity="0.35" rx="3"/>
<circle cx="185.8" cy="140.0" r="3.8" fill="#ffa500" filter="url(#glow)" opacity="0.9"/>
<text x="185.8" y="142.5" text-anchor="middle" font-size="5.5" font-family="sans-serif" fill="#060d1a" font-weight="bold">↑</text>
<circle cx="192.2" cy="140.0" r="3.8" fill="#ffa500" filter="url(#glow)" opacity="0.9"/>
<text x="192.2" y="142.5" text-anchor="middle" font-size="5.5" font-family="sans-serif" fill="#060d1a" font-weight="bold">↓</text>
<rect x="200.0" y="131.0" width="18" height="18" fill="none" stroke="#ffa500" stroke-width="0.7" opacity="0.35" rx="3"/>
<circle cx="205.8" cy="140.0" r="3.8" fill="#ffa500" filter="url(#glow)" opacity="0.9"/>
<text x="205.8" y="142.5" text-anchor="middle" font-size="5.5" font-family="sans-serif" fill="#060d1a" font-weight="bold">↑</text>
<circle cx="212.2" cy="140.0" r="3.8" fill="#ffa500" filter="url(#glow)" opacity="0.9"/>
<text x="212.2" y="142.5" text-anchor="middle" font-size="5.5" font-family="sans-serif" fill="#060d1a" font-weight="bold">↓</text>
<rect x="220.0" y="131.0" width="18" height="18" fill="none" stroke="#ffa500" stroke-width="0.7" opacity="0.35" rx="3"/>
<circle cx="225.8" cy="140.0" r="3.8" fill="#ffa500" filter="url(#glow)" opacity="0.9"/>
<text x="225.8" y="142.5" text-anchor="middle" font-size="5.5" font-family="sans-serif" fill="#060d1a" font-weight="bold">↑</text>
<circle cx="232.2" cy="140.0" r="3.8" fill="#ffa500" filter="url(#glow)" opacity="0.9"/>
<text x="232.2" y="142.5" text-anchor="middle" font-size="5.5" font-family="sans-serif" fill="#060d1a" font-weight="bold">↓</text>
<rect x="240.0" y="131.0" width="18" height="18" fill="none" stroke="#ffa500" stroke-width="0.7" opacity="0.35" rx="3"/>
<circle cx="245.8" cy="140.0" r="3.8" fill="#ffa500" filter="url(#glow)" opacity="0.9"/>
<text x="245.8" y="142.5" text-anchor="middle" font-size="5.5" font-family="sans-serif" fill="#060d1a" font-weight="bold">↑</text>
<circle cx="252.2" cy="140.0" r="3.8" fill="#ffa500" filter="url(#glow)" opacity="0.9"/>
<text x="252.2" y="142.5" text-anchor="middle" font-size="5.5" font-family="sans-serif" fill="#060d1a" font-weight="bold">↓</text>
<text x="262.0" y="143.0" font-family="monospace" font-size="6.5" fill="#ffa500" opacity="0.55">10e⁻</text>
<text x="10" y="191.0" font-family="monospace" font-size="7" fill="#446" opacity="0.7">n=4</text>
<text x="32" y="177.0" font-family="monospace" font-size="6.5" fill="#00ffff" opacity="0.85">4s</text>
<rect x="32.0" y="179.0" width="18" height="18" fill="none" stroke="#00ffff" stroke-width="0.7" opacity="0.35" rx="3"/>
<circle cx="37.8" cy="188.0" r="3.8" fill="#00ffff" filter="url(#glow)" opacity="0.9"/>
<text x="37.8" y="190.5" text-anchor="middle" font-size="5.5" font-family="sans-serif" fill="#060d1a" font-weight="bold">↑</text>
<circle cx="44.2" cy="188.0" r="3.8" fill="#00ffff" filter="url(#glow)" opacity="0.9"/>
<text x="44.2" y="190.5" text-anchor="middle" font-size="5.5" font-family="sans-serif" fill="#060d1a" font-weight="bold">↓</text>
<text x="54.0" y="191.0" font-family="monospace" font-size="6.5" fill="#00ffff" opacity="0.55">2e⁻</text>
<text x="76" y="177.0" font-family="monospace" font-size="6.5" fill="#ff4fff" opacity="0.85">4p</text>
<rect x="76.0" y="179.0" width="18" height="18" fill="none" stroke="#ff4fff" stroke-width="0.7" opacity="0.35" rx="3"/>
<circle cx="81.8" cy="188.0" r="3.8" fill="#ff4fff" filter="url(#glow)" opacity="0.9"/>
<text x="81.8" y="190.5" text-anchor="middle" font-size="5.5" font-family="sans-serif" fill="#060d1a" font-weight="bold">↑</text>
<circle cx="88.2" cy="188.0" r="3.8" fill="#ff4fff" filter="url(#glow)" opacity="0.9"/>
<text x="88.2" y="190.5" text-anchor="middle" font-size="5.5" font-family="sans-serif" fill="#060d1a" font-weight="bold">↓</text>
<rect x="96.0" y="179.0" width="18" height="18" fill="none" stroke="#ff4fff" stroke-width="0.7" opacity="0.35" rx="3"/>
<circle cx="101.8" cy="188.0" r="3.8" fill="#ff4fff" filter="url(#glow)" opacity="0.9"/>
<text x="101.8" y="190.5" text-anchor="middle" font-size="5.5" font-family="sans-serif" fill="#060d1a" font-weight="bold">↑</text>
<circle cx="108.2" cy="188.0" r="3.8" fill="#ff4fff" filter="url(#glow)" opacity="0.9"/>
<text x="108.2" y="190.5" text-anchor="middle" font-size="5.5" font-family="sans-serif" fill="#060d1a" font-weight="bold">↓</text>
<rect x="116.0" y="179.0" width="18" height="18" fill="none" stroke="#ff4fff" stroke-width="0.7" opacity="0.35" rx="3"/>
<circle cx="121.8" cy="188.0" r="3.8" fill="#ff4fff" filter="url(#glow)" opacity="0.9"/>
<text x="121.8" y="190.5" text-anchor="middle" font-size="5.5" font-family="sans-serif" fill="#060d1a" font-weight="bold">↑</text>
<circle cx="128.2" cy="188.0" r="3.8" fill="#ff4fff" filter="url(#glow)" opacity="0.9"/>
<text x="128.2" y="190.5" text-anchor="middle" font-size="5.5" font-family="sans-serif" fill="#060d1a" font-weight="bold">↓</text>
<text x="138.0" y="191.0" font-family="monospace" font-size="6.5" fill="#ff4fff" opacity="0.55">6e⁻</text>
<text x="160" y="177.0" font-family="monospace" font-size="6.5" fill="#ffa500" opacity="0.85">4d</text>
<rect x="160.0" y="179.0" width="18" height="18" fill="none" stroke="#ffa500" stroke-width="0.7" opacity="0.35" rx="3"/>
<circle cx="165.8" cy="188.0" r="3.8" fill="#ffa500" filter="url(#glow)" opacity="0.9"/>
<text x="165.8" y="190.5" text-anchor="middle" font-size="5.5" font-family="sans-serif" fill="#060d1a" font-weight="bold">↑</text>
<circle cx="172.2" cy="188.0" r="3.8" fill="#ffa500" filter="url(#glow)" opacity="0.9"/>
<text x="172.2" y="190.5" text-anchor="middle" font-size="5.5" font-family="sans-serif" fill="#060d1a" font-weight="bold">↓</text>
<rect x="180.0" y="179.0" width="18" height="18" fill="none" stroke="#ffa500" stroke-width="0.7" opacity="0.35" rx="3"/>
<circle cx="185.8" cy="188.0" r="3.8" fill="#ffa500" filter="url(#glow)" opacity="0.9"/>
<text x="185.8" y="190.5" text-anchor="middle" font-size="5.5" font-family="sans-serif" fill="#060d1a" font-weight="bold">↑</text>
<circle cx="192.2" cy="188.0" r="3.8" fill="#ffa500" filter="url(#glow)" opacity="0.9"/>
<text x="192.2" y="190.5" text-anchor="middle" font-size="5.5" font-family="sans-serif" fill="#060d1a" font-weight="bold">↓</text>
<rect x="200.0" y="179.0" width="18" height="18" fill="none" stroke="#ffa500" stroke-width="0.7" opacity="0.35" rx="3"/>
<circle cx="205.8" cy="188.0" r="3.8" fill="#ffa500" filter="url(#glow)" opacity="0.9"/>
<text x="205.8" y="190.5" text-anchor="middle" font-size="5.5" font-family="sans-serif" fill="#060d1a" font-weight="bold">↑</text>
<circle cx="212.2" cy="188.0" r="3.8" fill="#ffa500" filter="url(#glow)" opacity="0.9"/>
<text x="212.2" y="190.5" text-anchor="middle" font-size="5.5" font-family="sans-serif" fill="#060d1a" font-weight="bold">↓</text>
<rect x="220.0" y="179.0" width="18" height="18" fill="none" stroke="#ffa500" stroke-width="0.7" opacity="0.35" rx="3"/>
<circle cx="225.8" cy="188.0" r="3.8" fill="#ffa500" filter="url(#glow)" opacity="0.9"/>
<text x="225.8" y="190.5" text-anchor="middle" font-size="5.5" font-family="sans-serif" fill="#060d1a" font-weight="bold">↑</text>
<circle cx="232.2" cy="188.0" r="3.8" fill="#ffa500" filter="url(#glow)" opacity="0.9"/>
<text x="232.2" y="190.5" text-anchor="middle" font-size="5.5" font-family="sans-serif" fill="#060d1a" font-weight="bold">↓</text>
<rect x="240.0" y="179.0" width="18" height="18" fill="none" stroke="#ffa500" stroke-width="0.7" opacity="0.35" rx="3"/>
<circle cx="245.8" cy="188.0" r="3.8" fill="#ffa500" filter="url(#glow)" opacity="0.9"/>
<text x="245.8" y="190.5" text-anchor="middle" font-size="5.5" font-family="sans-serif" fill="#060d1a" font-weight="bold">↑</text>
<circle cx="252.2" cy="188.0" r="3.8" fill="#ffa500" filter="url(#glow)" opacity="0.9"/>
<text x="252.2" y="190.5" text-anchor="middle" font-size="5.5" font-family="sans-serif" fill="#060d1a" font-weight="bold">↓</text>
<text x="262.0" y="191.0" font-family="monospace" font-size="6.5" fill="#ffa500" opacity="0.55">10e⁻</text>
<text x="10" y="239.0" font-family="monospace" font-size="7" fill="#446" opacity="0.7">n=5</text>
<text x="32" y="225.0" font-family="monospace" font-size="6.5" fill="#00ffff" opacity="0.85">5s</text>
<rect x="32.0" y="227.0" width="18" height="18" fill="none" stroke="#00ffff" stroke-width="0.7" opacity="0.35" rx="3"/>
<circle cx="37.8" cy="236.0" r="3.8" fill="#00ffff" filter="url(#glow)" opacity="0.9"/>
<text x="37.8" y="238.5" text-anchor="middle" font-size="5.5" font-family="sans-serif" fill="#060d1a" font-weight="bold">↑</text>
<circle cx="44.2" cy="236.0" r="3.8" fill="#00ffff" filter="url(#glow)" opacity="0.9"/>
<text x="44.2" y="238.5" text-anchor="middle" font-size="5.5" font-family="sans-serif" fill="#060d1a" font-weight="bold">↓</text>
<text x="54.0" y="239.0" font-family="monospace" font-size="6.5" fill="#00ffff" opacity="0.55">2e⁻</text>
<text x="76" y="225.0" font-family="monospace" font-size="6.5" fill="#ff4fff" opacity="0.85">5p</text>
<rect x="76.0" y="227.0" width="18" height="18" fill="none" stroke="#ff4fff" stroke-width="0.7" opacity="0.35" rx="3"/>
<circle cx="81.8" cy="236.0" r="3.8" fill="#ff4fff" filter="url(#glow)" opacity="0.9"/>
<text x="81.8" y="238.5" text-anchor="middle" font-size="5.5" font-family="sans-serif" fill="#060d1a" font-weight="bold">↑</text>
<circle cx="88.2" cy="236.0" r="3.8" fill="#ff4fff" filter="url(#glow)" opacity="0.9"/>
<text x="88.2" y="238.5" text-anchor="middle" font-size="5.5" font-family="sans-serif" fill="#060d1a" font-weight="bold">↓</text>
<rect x="96.0" y="227.0" width="18" height="18" fill="none" stroke="#ff4fff" stroke-width="0.7" opacity="0.35" rx="3"/>
<circle cx="101.8" cy="236.0" r="3.8" fill="#ff4fff" filter="url(#glow)" opacity="0.9"/>
<text x="101.8" y="238.5" text-anchor="middle" font-size="5.5" font-family="sans-serif" fill="#060d1a" font-weight="bold">↑</text>
<circle cx="108.2" cy="236.0" r="3.8" fill="#ff4fff" filter="url(#glow)" opacity="0.9"/>
<text x="108.2" y="238.5" text-anchor="middle" font-size="5.5" font-family="sans-serif" fill="#060d1a" font-weight="bold">↓</text>
<rect x="116.0" y="227.0" width="18" height="18" fill="none" stroke="#ff4fff" stroke-width="0.7" opacity="0.35" rx="3"/>
<circle cx="121.8" cy="236.0" r="3.8" fill="#ff4fff" filter="url(#glow)" opacity="0.9"/>
<text x="121.8" y="238.5" text-anchor="middle" font-size="5.5" font-family="sans-serif" fill="#060d1a" font-weight="bold">↑</text>
<circle cx="128.2" cy="236.0" r="3.8" fill="#ff4fff" filter="url(#glow)" opacity="0.9"/>
<text x="128.2" y="238.5" text-anchor="middle" font-size="5.5" font-family="sans-serif" fill="#060d1a" font-weight="bold">↓</text>
<text x="138.0" y="239.0" font-family="monospace" font-size="6.5" fill="#ff4fff" opacity="0.55">6e⁻</text>
<text x="10" y="287.0" font-family="monospace" font-size="7" fill="#446" opacity="0.7">n=6</text>
<text x="32" y="273.0" font-family="monospace" font-size="6.5" fill="#00ffff" opacity="0.85">6s</text>
<rect x="32.0" y="275.0" width="18" height="18" fill="none" stroke="#00ffff" stroke-width="0.7" opacity="0.35" rx="3"/>
<circle cx="37.8" cy="284.0" r="3.8" fill="#00ffff" filter="url(#glow)" opacity="0.9"/>
<text x="37.8" y="286.5" text-anchor="middle" font-size="5.5" font-family="sans-serif" fill="#060d1a" font-weight="bold">↑</text>
<circle cx="44.2" cy="284.0" r="3.8" fill="#00ffff" filter="url(#glow)" opacity="0.9"/>
<text x="44.2" y="286.5" text-anchor="middle" font-size="5.5" font-family="sans-serif" fill="#060d1a" font-weight="bold">↓</text>
<text x="54.0" y="287.0" font-family="monospace" font-size="6.5" fill="#00ffff" opacity="0.55">2e⁻</text>
<text x="310" y="320" text-anchor="end" font-family="monospace" font-size="7" fill="#334" opacity="0.5">Z=56</text>
</svg>