<svg xmlns="http://www.w3.org/2000/svg" viewBox="0 0 320 320" width="320" height="320" style="background:#060d1a" data-symbol="Dy" data-view="classic">
<defs>
  <filter id="glow"><feGaussianBlur stdDeviation="2" result="b"/>
  <feMerge><feMergeNode in="b"/><feMergeNode in="SourceGraphic"/></feMerge></filter>
  <filter id="ng"><feGaussianBlur stdDeviation="4" result="b"/>
  <feMerge><feMergeNode in="b"/><feMergeNode in="SourceGraphic"/></feMerge></filter>
</defs>
<g id="shell-0" class="bohr-shell" data-shell="0">
  <circle cx="160" cy="160" r="34.7" fill="none" stroke="#00e5ff" stroke-width="0.7" opacity="0.3"/>
  <circle cx="160.00" cy="125.33" r="3.0" fill="#00e5ff" filter="url(#glow)" opacity="0.85"/>
  <circle cx="160.00" cy="194.67" r="3.0" fill="#00e5ff" filter="url(#glow)" opacity="0.85"/>
</g>
<g id="shell-1" class="bohr-shell" data-shell="1">
  <circle cx="160" cy="160" r="55.3" fill="none" stroke="#00b4d8" stroke-width="0.7" opacity="0.3"/>
  <circle cx="160.00" cy="104.67" r="3.0" fill="#00b4d8" filter="url(#glow)" opacity="0.85"/>
  <circle cx="199.13" cy="120.87" r="3.0" fill="#00b4d8" filter="url(#glow)" opacity="0.85"/>
  <circle cx="215.33" cy="160.00" r="3.0" fill="#00b4d8" filter="url(#glow)" opacity="0.85"/>
  <circle cx="199.13" cy="199.13" r="3.0" fill="#00b4d8" filter="url(#glow)" opacity="0.85"/>
  <circle cx="160.00" cy="215.33" r="3.0" fill="#00b4d8" filter="url(#glow)" opacity="0.85"/>
  <circle cx="120.87" cy="199.13" r="3.0" fill="#00b4d8" filter="url(#glow)" opacity="0.85"/>
  <circle cx="104.67" cy="160.00" r="3.0" fill="#00b4d8" filter="url(#glow)" opacity="0.85"/>
  <circle cx="120.87" cy="120.87" r="3.0" fill="#00b4d8" filter="url(#glow)" opacity="0.85"/>
</g>
<g id="shell-2" class="bohr-shell" data-shell="2">
  <circle cx="160" cy="160" r="76.0" fill="none" stroke="#c77dff" stroke-width="0.7" opacity="0.3"/>
  <circle cx="160.00" cy="84.00" r="3.0" fill="#c77dff" filter="url(#glow)" opacity="0.85"/>
  <circle cx="185.99" cy="88.58" r="3.0" fill="#c77dff" filter="url(#glow)" opacity="0.85"/>
  <circle cx="208.85" cy="101.78" r="3.0" fill="#c77dff" filter="url(#glow)" opacity="0.85"/>
  <circle cx="225.82" cy="122.00" r="3.0" fill="#c77dff" filter="url(#glow)" opacity="0.85"/>
  <circle cx="234.85" cy="146.80" r="3.0" fill="#c77dff" filter="url(#glow)" opacity="0.85"/>
  <circle cx="234.85" cy="173.20" r="3.0" fill="#c77dff" filter="url(#glow)" opacity="0.85"/>
  <circle cx="225.82" cy="198.00" r="3.0" fill="#c77dff" filter="url(#glow)" opacity="0.85"/>
  <circle cx="208.85" cy="218.22" r="3.0" fill="#c77dff" filter="url(#glow)" opacity="0.85"/>
  <circle cx="185.99" cy="231.42" r="3.0" fill="#c77dff" filter="url(#glow)" opacity="0.85"/>
  <circle cx="160.00" cy="236.00" r="3.0" fill="#c77dff" filter="url(#glow)" opacity="0.85"/>
  <circle cx="134.01" cy="231.42" r="3.0" fill="#c77dff" filter="url(#glow)" opacity="0.85"/>
  <circle cx="111.15" cy="218.22" r="3.0" fill="#c77dff" filter="url(#glow)" opacity="0.85"/>
  <circle cx="94.18" cy="198.00" r="3.0" fill="#c77dff" filter="url(#glow)" opacity="0.85"/>
  <circle cx="85.15" cy="173.20" r="3.0" fill="#c77dff" filter="url(#glow)" opacity="0.85"/>
  <circle cx="85.15" cy="146.80" r="3.0" fill="#c77dff" filter="url(#glow)" opacity="0.85"/>
  <circle cx="94.18" cy="122.00" r="3.0" fill="#c77dff" filter="url(#glow)" opacity="0.85"/>
  <circle cx="111.15" cy="101.78" r="3.0" fill="#c77dff" filter="url(#glow)" opacity="0.85"/>
  <circle cx="134.01" cy="88.58" r="3.0" fill="#c77dff" filter="url(#glow)" opacity="0.85"/>
</g>
<g id="shell-3" class="bohr-shell" data-shell="3">
  <circle cx="160" cy="160" r="96.7" fill="none" stroke="#9b5de5" stroke-width="0.7" opacity="0.3"/>
  <circle cx="160.00" cy="63.33" r="3.0" fill="#9b5de5" filter="url(#glow)" opacity="0.85"/>
  <circle cx="181.51" cy="65.76" r="3.0" fill="#9b5de5" filter="url(#glow)" opacity="0.85"/>
  <circle cx="201.94" cy="72.91" r="3.0" fill="#9b5de5" filter="url(#glow)" opacity="0.85"/>
  <circle cx="220.27" cy="84.42" r="3.0" fill="#9b5de5" filter="url(#glow)" opacity="0.85"/>
  <circle cx="235.58" cy="99.73" r="3.0" fill="#9b5de5" filter="url(#glow)" opacity="0.85"/>
  <circle cx="247.09" cy="118.06" r="3.0" fill="#9b5de5" filter="url(#glow)" opacity="0.85"/>
  <circle cx="254.24" cy="138.49" r="3.0" fill="#9b5de5" filter="url(#glow)" opacity="0.85"/>
  <circle cx="256.67" cy="160.00" r="3.0" fill="#9b5de5" filter="url(#glow)" opacity="0.85"/>
  <circle cx="254.24" cy="181.51" r="3.0" fill="#9b5de5" filter="url(#glow)" opacity="0.85"/>
  <circle cx="247.09" cy="201.94" r="3.0" fill="#9b5de5" filter="url(#glow)" opacity="0.85"/>
  <circle cx="235.58" cy="220.27" r="3.0" fill="#9b5de5" filter="url(#glow)" opacity="0.85"/>
  <circle cx="220.27" cy="235.58" r="3.0" fill="#9b5de5" filter="url(#glow)" opacity="0.85"/>
  <circle cx="201.94" cy="247.09" r="3.0" fill="#9b5de5" filter="url(#glow)" opacity="0.85"/>
  <circle cx="181.51" cy="254.24" r="3.0" fill="#9b5de5" filter="url(#glow)" opacity="0.85"/>
  <circle cx="160.00" cy="256.67" r="3.0" fill="#9b5de5" filter="url(#glow)" opacity="0.85"/>
  <circle cx="138.49" cy="254.24" r="3.0" fill="#9b5de5" filter="url(#glow)" opacity="0.85"/>
  <circle cx="118.06" cy="247.09" r="3.0" fill="#9b5de5" filter="url(#glow)" opacity="0.85"/>
  <circle cx="99.73" cy="235.58" r="3.0" fill="#9b5de5" filter="url(#glow)" opacity="0.85"/>
  <circle cx="84.42" cy="220.27" r="3.0" fill="#9b5de5" filter="url(#glow)" opacity="0.85"/>
  <circle cx="72.91" cy="201.94" r="3.0" fill="#9b5de5" filter="url(#glow)" opacity="0.85"/>
  <circle cx="65.76" cy="181.51" r="3.0" fill="#9b5de5" filter="url(#glow)" opacity="0.85"/>
  <circle cx="63.33" cy="160.00" r="3.0" fill="#9b5de5" filter="url(#glow)" opacity="0.85"/>
  <circle cx="65.76" cy="138.49" r="3.0" fill="#9b5de5" filter="url(#glow)" opacity="0.85"/>
  <circle cx="72.91" cy="118.06" r="3.0" fill="#9b5de5" filter="url(#glow)" opacity="0.85"/>
  <circle cx="84.42" cy="99.73" r="3.0" fill="#9b5de5" filter="url(#glow)" opacity="0.85"/>
  <circle cx="99.73" cy="84.42" r="3.0" fill="#9b5de5" filter="url(#glow)" opacity="0.85"/>
  <circle cx="118.06" cy="72.91" r="3.0" fill="#9b5de5" filter="url(#glow)" opacity="0.85"/>
  <circle cx="138.49" cy="65.76" r="3.0" fill="#9b5de5" filter="url(#glow)" opacity="0.85"/>
</g>
<g id="shell-4" class="bohr-shell" data-shell="4">
  <circle cx="160" cy="160" r="117.3" fill="none" stroke="#ff9a00" stroke-width="0.7" opacity="0.3"/>
  <circle cx="160.00" cy="42.67" r="3.0" fill="#ff9a00" filter="url(#glow)" opacity="0.85"/>
  <circle cx="242.97" cy="77.03" r="3.0" fill="#ff9a00" filter="url(#glow)" opacity="0.85"/>
  <circle cx="277.33" cy="160.00" r="3.0" fill="#ff9a00" filter="url(#glow)" opacity="0.85"/>
  <circle cx="242.97" cy="242.97" r="3.0" fill="#ff9a00" filter="url(#glow)" opacity="0.85"/>
  <circle cx="160.00" cy="277.33" r="3.0" fill="#ff9a00" filter="url(#glow)" opacity="0.85"/>
  <circle cx="77.03" cy="242.97" r="3.0" fill="#ff9a00" filter="url(#glow)" opacity="0.85"/>
  <circle cx="42.67" cy="160.00" r="3.0" fill="#ff9a00" filter="url(#glow)" opacity="0.85"/>
  <circle cx="77.03" cy="77.03" r="3.0" fill="#ff9a00" filter="url(#glow)" opacity="0.85"/>
</g>
<g id="shell-5" class="bohr-shell" data-shell="5">
  <circle cx="160" cy="160" r="138.0" fill="none" stroke="#ff6b35" stroke-width="0.7" opacity="0.3"/>
  <circle cx="160.00" cy="22.00" r="3.0" fill="#ff6b35" filter="url(#glow)" opacity="0.85"/>
  <circle cx="160.00" cy="298.00" r="3.0" fill="#ff6b35" filter="url(#glow)" opacity="0.85"/>
</g>
<g id="nucleus"><circle cx="160" cy="160" r="14" fill="#1fffc7" filter="url(#ng)" opacity="0.9"/><text x="160" y="164.6" text-anchor="middle" font-family="monospace" font-size="12" font-weight="bold" fill="#fff">Dy</text></g>
<text x="160" y="141.0" text-anchor="middle" font-family="monospace" font-size="8" fill="#334" opacity="0.6">66</text>
<text x="160" y="314" text-anchor="middle" font-family="monospace" font-size="7" fill="#334" opacity="0.4">2 · 8 · 18 · 28 · 8 · 2</text>
</svg>