<svg xmlns="http://www.w3.org/2000/svg" viewBox="0 0 320 320" width="320" height="320" style="background:#060d1a" data-symbol="Es" data-view="classic">
<defs>
  <filter id="glow"><feGaussianBlur stdDeviation="2" result="b"/>
  <feMerge><feMergeNode in="b"/><feMergeNode in="SourceGraphic"/></feMerge></filter>
  <filter id="ng"><feGaussianBlur stdDeviation="4" result="b"/>
  <feMerge><feMergeNode in="b"/><feMergeNode in="SourceGraphic"/></feMerge></filter>
</defs>
<g id="shell-0" class="bohr-shell" data-shell="0">
  <circle cx="160" cy="160" r="30.9" fill="none" stroke="#00e5ff" stroke-width="0.7" opacity="0.3"/>
  <circle cx="160.00" cy="129.14" r="3.0" fill="#00e5ff" filter="url(#glow)" opacity="0.85"/>
  <circle cx="160.00" cy="190.86" r="3.0" fill="#00e5ff" filter="url(#glow)" opacity="0.85"/>
</g>
<g id="shell-1" class="bohr-shell" data-shell="1">
  <circle cx="160" cy="160" r="48.7" fill="none" stroke="#00b4d8" stroke-width="0.7" opacity="0.3"/>
  <circle cx="160.00" cy="111.29" r="3.0" fill="#00b4d8" filter="url(#glow)" opacity="0.85"/>
  <circle cx="194.45" cy="125.55" r="3.0" fill="#00b4d8" filter="url(#glow)" opacity="0.85"/>
  <circle cx="208.71" cy="160.00" r="3.0" fill="#00b4d8" filter="url(#glow)" opacity="0.85"/>
  <circle cx="194.45" cy="194.45" r="3.0" fill="#00b4d8" filter="url(#glow)" opacity="0.85"/>
  <circle cx="160.00" cy="208.71" r="3.0" fill="#00b4d8" filter="url(#glow)" opacity="0.85"/>
  <circle cx="125.55" cy="194.45" r="3.0" fill="#00b4d8" filter="url(#glow)" opacity="0.85"/>
  <circle cx="111.29" cy="160.00" r="3.0" fill="#00b4d8" filter="url(#glow)" opacity="0.85"/>
  <circle cx="125.55" cy="125.55" r="3.0" fill="#00b4d8" filter="url(#glow)" opacity="0.85"/>
</g>
<g id="shell-2" class="bohr-shell" data-shell="2">
  <circle cx="160" cy="160" r="66.6" fill="none" stroke="#c77dff" stroke-width="0.7" opacity="0.3"/>
  <circle cx="160.00" cy="93.43" r="3.0" fill="#c77dff" filter="url(#glow)" opacity="0.85"/>
  <circle cx="182.77" cy="97.44" r="3.0" fill="#c77dff" filter="url(#glow)" opacity="0.85"/>
  <circle cx="202.79" cy="109.00" r="3.0" fill="#c77dff" filter="url(#glow)" opacity="0.85"/>
  <circle cx="217.65" cy="126.71" r="3.0" fill="#c77dff" filter="url(#glow)" opacity="0.85"/>
  <circle cx="225.56" cy="148.44" r="3.0" fill="#c77dff" filter="url(#glow)" opacity="0.85"/>
  <circle cx="225.56" cy="171.56" r="3.0" fill="#c77dff" filter="url(#glow)" opacity="0.85"/>
  <circle cx="217.65" cy="193.29" r="3.0" fill="#c77dff" filter="url(#glow)" opacity="0.85"/>
  <circle cx="202.79" cy="211.00" r="3.0" fill="#c77dff" filter="url(#glow)" opacity="0.85"/>
  <circle cx="182.77" cy="222.56" r="3.0" fill="#c77dff" filter="url(#glow)" opacity="0.85"/>
  <circle cx="160.00" cy="226.57" r="3.0" fill="#c77dff" filter="url(#glow)" opacity="0.85"/>
  <circle cx="137.23" cy="222.56" r="3.0" fill="#c77dff" filter="url(#glow)" opacity="0.85"/>
  <circle cx="117.21" cy="211.00" r="3.0" fill="#c77dff" filter="url(#glow)" opacity="0.85"/>
  <circle cx="102.35" cy="193.29" r="3.0" fill="#c77dff" filter="url(#glow)" opacity="0.85"/>
  <circle cx="94.44" cy="171.56" r="3.0" fill="#c77dff" filter="url(#glow)" opacity="0.85"/>
  <circle cx="94.44" cy="148.44" r="3.0" fill="#c77dff" filter="url(#glow)" opacity="0.85"/>
  <circle cx="102.35" cy="126.71" r="3.0" fill="#c77dff" filter="url(#glow)" opacity="0.85"/>
  <circle cx="117.21" cy="109.00" r="3.0" fill="#c77dff" filter="url(#glow)" opacity="0.85"/>
  <circle cx="137.23" cy="97.44" r="3.0" fill="#c77dff" filter="url(#glow)" opacity="0.85"/>
</g>
<g id="shell-3" class="bohr-shell" data-shell="3">
  <circle cx="160" cy="160" r="84.4" fill="none" stroke="#9b5de5" stroke-width="0.7" opacity="0.3"/>
  <circle cx="160.00" cy="75.57" r="3.0" fill="#9b5de5" filter="url(#glow)" opacity="0.85"/>
  <circle cx="176.47" cy="77.19" r="3.0" fill="#9b5de5" filter="url(#glow)" opacity="0.85"/>
  <circle cx="192.31" cy="82.00" r="3.0" fill="#9b5de5" filter="url(#glow)" opacity="0.85"/>
  <circle cx="206.91" cy="89.80" r="3.0" fill="#9b5de5" filter="url(#glow)" opacity="0.85"/>
  <circle cx="219.70" cy="100.30" r="3.0" fill="#9b5de5" filter="url(#glow)" opacity="0.85"/>
  <circle cx="230.20" cy="113.09" r="3.0" fill="#9b5de5" filter="url(#glow)" opacity="0.85"/>
  <circle cx="238.00" cy="127.69" r="3.0" fill="#9b5de5" filter="url(#glow)" opacity="0.85"/>
  <circle cx="242.81" cy="143.53" r="3.0" fill="#9b5de5" filter="url(#glow)" opacity="0.85"/>
  <circle cx="244.43" cy="160.00" r="3.0" fill="#9b5de5" filter="url(#glow)" opacity="0.85"/>
  <circle cx="242.81" cy="176.47" r="3.0" fill="#9b5de5" filter="url(#glow)" opacity="0.85"/>
  <circle cx="238.00" cy="192.31" r="3.0" fill="#9b5de5" filter="url(#glow)" opacity="0.85"/>
  <circle cx="230.20" cy="206.91" r="3.0" fill="#9b5de5" filter="url(#glow)" opacity="0.85"/>
  <circle cx="219.70" cy="219.70" r="3.0" fill="#9b5de5" filter="url(#glow)" opacity="0.85"/>
  <circle cx="206.91" cy="230.20" r="3.0" fill="#9b5de5" filter="url(#glow)" opacity="0.85"/>
  <circle cx="192.31" cy="238.00" r="3.0" fill="#9b5de5" filter="url(#glow)" opacity="0.85"/>
  <circle cx="176.47" cy="242.81" r="3.0" fill="#9b5de5" filter="url(#glow)" opacity="0.85"/>
  <circle cx="160.00" cy="244.43" r="3.0" fill="#9b5de5" filter="url(#glow)" opacity="0.85"/>
  <circle cx="143.53" cy="242.81" r="3.0" fill="#9b5de5" filter="url(#glow)" opacity="0.85"/>
  <circle cx="127.69" cy="238.00" r="3.0" fill="#9b5de5" filter="url(#glow)" opacity="0.85"/>
  <circle cx="113.09" cy="230.20" r="3.0" fill="#9b5de5" filter="url(#glow)" opacity="0.85"/>
  <circle cx="100.30" cy="219.70" r="3.0" fill="#9b5de5" filter="url(#glow)" opacity="0.85"/>
  <circle cx="89.80" cy="206.91" r="3.0" fill="#9b5de5" filter="url(#glow)" opacity="0.85"/>
  <circle cx="82.00" cy="192.31" r="3.0" fill="#9b5de5" filter="url(#glow)" opacity="0.85"/>
  <circle cx="77.19" cy="176.47" r="3.0" fill="#9b5de5" filter="url(#glow)" opacity="0.85"/>
  <circle cx="75.57" cy="160.00" r="3.0" fill="#9b5de5" filter="url(#glow)" opacity="0.85"/>
  <circle cx="77.19" cy="143.53" r="3.0" fill="#9b5de5" filter="url(#glow)" opacity="0.85"/>
  <circle cx="82.00" cy="127.69" r="3.0" fill="#9b5de5" filter="url(#glow)" opacity="0.85"/>
  <circle cx="89.80" cy="113.09" r="3.0" fill="#9b5de5" filter="url(#glow)" opacity="0.85"/>
  <circle cx="100.30" cy="100.30" r="3.0" fill="#9b5de5" filter="url(#glow)" opacity="0.85"/>
  <circle cx="113.09" cy="89.80" r="3.0" fill="#9b5de5" filter="url(#glow)" opacity="0.85"/>
  <circle cx="127.69" cy="82.00" r="3.0" fill="#9b5de5" filter="url(#glow)" opacity="0.85"/>
  <circle cx="143.53" cy="77.19" r="3.0" fill="#9b5de5" filter="url(#glow)" opacity="0.85"/>
</g>
<g id="shell-4" class="bohr-shell" data-shell="4">
  <circle cx="160" cy="160" r="102.3" fill="none" stroke="#ff9a00" stroke-width="0.7" opacity="0.3"/>
  <circle cx="160.00" cy="57.71" r="3.0" fill="#ff9a00" filter="url(#glow)" opacity="0.85"/>
  <circle cx="181.99" cy="60.11" r="3.0" fill="#ff9a00" filter="url(#glow)" opacity="0.85"/>
  <circle cx="202.95" cy="67.17" r="3.0" fill="#ff9a00" filter="url(#glow)" opacity="0.85"/>
  <circle cx="221.90" cy="78.57" r="3.0" fill="#ff9a00" filter="url(#glow)" opacity="0.85"/>
  <circle cx="237.96" cy="93.78" r="3.0" fill="#ff9a00" filter="url(#glow)" opacity="0.85"/>
  <circle cx="250.37" cy="112.09" r="3.0" fill="#ff9a00" filter="url(#glow)" opacity="0.85"/>
  <circle cx="258.56" cy="132.64" r="3.0" fill="#ff9a00" filter="url(#glow)" opacity="0.85"/>
  <circle cx="262.14" cy="154.46" r="3.0" fill="#ff9a00" filter="url(#glow)" opacity="0.85"/>
  <circle cx="260.94" cy="176.55" r="3.0" fill="#ff9a00" filter="url(#glow)" opacity="0.85"/>
  <circle cx="255.02" cy="197.86" r="3.0" fill="#ff9a00" filter="url(#glow)" opacity="0.85"/>
  <circle cx="244.66" cy="217.40" r="3.0" fill="#ff9a00" filter="url(#glow)" opacity="0.85"/>
  <circle cx="230.34" cy="234.26" r="3.0" fill="#ff9a00" filter="url(#glow)" opacity="0.85"/>
  <circle cx="212.73" cy="247.64" r="3.0" fill="#ff9a00" filter="url(#glow)" opacity="0.85"/>
  <circle cx="192.66" cy="256.93" r="3.0" fill="#ff9a00" filter="url(#glow)" opacity="0.85"/>
  <circle cx="171.06" cy="261.69" r="3.0" fill="#ff9a00" filter="url(#glow)" opacity="0.85"/>
  <circle cx="148.94" cy="261.69" r="3.0" fill="#ff9a00" filter="url(#glow)" opacity="0.85"/>
  <circle cx="127.34" cy="256.93" r="3.0" fill="#ff9a00" filter="url(#glow)" opacity="0.85"/>
  <circle cx="107.27" cy="247.64" r="3.0" fill="#ff9a00" filter="url(#glow)" opacity="0.85"/>
  <circle cx="89.66" cy="234.26" r="3.0" fill="#ff9a00" filter="url(#glow)" opacity="0.85"/>
  <circle cx="75.34" cy="217.40" r="3.0" fill="#ff9a00" filter="url(#glow)" opacity="0.85"/>
  <circle cx="64.98" cy="197.86" r="3.0" fill="#ff9a00" filter="url(#glow)" opacity="0.85"/>
  <circle cx="59.06" cy="176.55" r="3.0" fill="#ff9a00" filter="url(#glow)" opacity="0.85"/>
  <circle cx="57.86" cy="154.46" r="3.0" fill="#ff9a00" filter="url(#glow)" opacity="0.85"/>
  <circle cx="61.44" cy="132.64" r="3.0" fill="#ff9a00" filter="url(#glow)" opacity="0.85"/>
  <circle cx="69.63" cy="112.09" r="3.0" fill="#ff9a00" filter="url(#glow)" opacity="0.85"/>
  <circle cx="82.04" cy="93.78" r="3.0" fill="#ff9a00" filter="url(#glow)" opacity="0.85"/>
  <circle cx="98.10" cy="78.57" r="3.0" fill="#ff9a00" filter="url(#glow)" opacity="0.85"/>
  <circle cx="117.05" cy="67.17" r="3.0" fill="#ff9a00" filter="url(#glow)" opacity="0.85"/>
  <circle cx="138.01" cy="60.11" r="3.0" fill="#ff9a00" filter="url(#glow)" opacity="0.85"/>
</g>
<g id="shell-5" class="bohr-shell" data-shell="5">
  <circle cx="160" cy="160" r="120.1" fill="none" stroke="#ff6b35" stroke-width="0.7" opacity="0.3"/>
  <circle cx="160.00" cy="39.86" r="3.0" fill="#ff6b35" filter="url(#glow)" opacity="0.85"/>
  <circle cx="244.95" cy="75.05" r="3.0" fill="#ff6b35" filter="url(#glow)" opacity="0.85"/>
  <circle cx="280.14" cy="160.00" r="3.0" fill="#ff6b35" filter="url(#glow)" opacity="0.85"/>
  <circle cx="244.95" cy="244.95" r="3.0" fill="#ff6b35" filter="url(#glow)" opacity="0.85"/>
  <circle cx="160.00" cy="280.14" r="3.0" fill="#ff6b35" filter="url(#glow)" opacity="0.85"/>
  <circle cx="75.05" cy="244.95" r="3.0" fill="#ff6b35" filter="url(#glow)" opacity="0.85"/>
  <circle cx="39.86" cy="160.00" r="3.0" fill="#ff6b35" filter="url(#glow)" opacity="0.85"/>
  <circle cx="75.05" cy="75.05" r="3.0" fill="#ff6b35" filter="url(#glow)" opacity="0.85"/>
</g>
<g id="shell-6" class="bohr-shell" data-shell="6">
  <circle cx="160" cy="160" r="138.0" fill="none" stroke="#66ff66" stroke-width="0.7" opacity="0.3"/>
  <circle cx="160.00" cy="22.00" r="3.0" fill="#66ff66" filter="url(#glow)" opacity="0.85"/>
  <circle cx="160.00" cy="298.00" r="3.0" fill="#66ff66" filter="url(#glow)" opacity="0.85"/>
</g>
<g id="nucleus"><circle cx="160" cy="160" r="13" fill="#b31fba" filter="url(#ng)" opacity="0.9"/><text x="160" y="164.6" text-anchor="middle" font-family="monospace" font-size="12" font-weight="bold" fill="#fff">Es</text></g>
<text x="160" y="142.0" text-anchor="middle" font-family="monospace" font-size="8" fill="#334" opacity="0.6">99</text>
<text x="160" y="314" text-anchor="middle" font-family="monospace" font-size="7" fill="#334" opacity="0.4">2 · 8 · 18 · 32 · 29 · 8 · 2</text>
</svg>