<svg xmlns="http://www.w3.org/2000/svg" viewBox="0 0 320 324" width="320" height="324" style="background:#060d1a" data-symbol="Es" data-view="orbital">
<defs>
  <filter id="glow"><feGaussianBlur stdDeviation="1.8" result="b"/>
  <feMerge><feMergeNode in="b"/><feMergeNode in="SourceGraphic"/></feMerge></filter>
  <radialGradient id="bg">
    <stop offset="0%" stop-color="#0d1730"/>
    <stop offset="100%" stop-color="#060d1a"/>
  </radialGradient>
</defs>
<rect width="320" height="324" fill="url(#bg)"/>
<text x="160" y="13" text-anchor="middle" font-family="monospace" font-size="9" fill="#b31fba" opacity="0.9">Es — orbitales</text>
<text x="10" y="39.0" font-family="monospace" font-size="7" fill="#446" opacity="0.7">n=1</text>
<text x="32" y="25.0" font-family="monospace" font-size="6.5" fill="#00ffff" opacity="0.85">1s</text>
<rect x="32.0" y="27.0" width="18" height="18" fill="none" stroke="#00ffff" stroke-width="0.7" opacity="0.35" rx="3"/>
<circle cx="37.8" cy="36.0" r="3.8" fill="#00ffff" filter="url(#glow)" opacity="0.9"/>
<text x="37.8" y="38.5" text-anchor="middle" font-size="5.5" font-family="sans-serif" fill="#060d1a" font-weight="bold">↑</text>
<circle cx="44.2" cy="36.0" r="3.8" fill="#00ffff" filter="url(#glow)" opacity="0.9"/>
<text x="44.2" y="38.5" text-anchor="middle" font-size="5.5" font-family="sans-serif" fill="#060d1a" font-weight="bold">↓</text>
<text x="54.0" y="39.0" font-family="monospace" font-size="6.5" fill="#00ffff" opacity="0.55">2e⁻</text>
<text x="10" y="71.0" font-family="monospace" font-size="7" fill="#446" opacity="0.7">n=2</text>
<text x="32" y="57.0" font-family="monospace" font-size="6.5" fill="#00ffff" opacity="0.85">2s</text>
<rect x="32.0" y="59.0" width="18" height="18" fill="none" stroke="#00ffff" stroke-width="0.7" opacity="0.35" rx="3"/>
<circle cx="37.8" cy="68.0" r="3.8" fill="#00ffff" filter="url(#glow)" opacity="0.9"/>
<text x="37.8" y="70.5" text-anchor="middle" font-size="5.5" font-family="sans-serif" fill="#060d1a" font-weight="bold">↑</text>
<circle cx="44.2" cy="68.0" r="3.8" fill="#00ffff" filter="url(#glow)" opacity="0.9"/>
<text x="44.2" y="70.5" text-anchor="middle" font-size="5.5" font-family="sans-serif" fill="#060d1a" font-weight="bold">↓</text>
<text x="54.0" y="71.0" font-family="monospace" font-size="6.5" fill="#00ffff" opacity="0.55">2e⁻</text>
<text x="76" y="57.0" font-family="monospace" font-size="6.5" fill="#ff4fff" opacity="0.85">2p</text>
<rect x="76.0" y="59.0" width="18" height="18" fill="none" stroke="#ff4fff" stroke-width="0.7" opacity="0.35" rx="3"/>
<circle cx="81.8" cy="68.0" r="3.8" fill="#ff4fff" filter="url(#glow)" opacity="0.9"/>
<text x="81.8" y="70.5" text-anchor="middle" font-size="5.5" font-family="sans-serif" fill="#060d1a" font-weight="bold">↑</text>
<circle cx="88.2" cy="68.0" r="3.8" fill="#ff4fff" filter="url(#glow)" opacity="0.9"/>
<text x="88.2" y="70.5" text-anchor="middle" font-size="5.5" font-family="sans-serif" fill="#060d1a" font-weight="bold">↓</text>
<rect x="96.0" y="59.0" width="18" height="18" fill="none" stroke="#ff4fff" stroke-width="0.7" opacity="0.35" rx="3"/>
<circle cx="101.8" cy="68.0" r="3.8" fill="#ff4fff" filter="url(#glow)" opacity="0.9"/>
<text x="101.8" y="70.5" text-anchor="middle" font-size="5.5" font-family="sans-serif" fill="#060d1a" font-weight="bold">↑</text>
<circle cx="108.2" cy="68.0" r="3.8" fill="#ff4fff" filter="url(#glow)" opacity="0.9"/>
<text x="108.2" y="70.5" text-anchor="middle" font-size="5.5" font-family="sans-serif" fill="#060d1a" font-weight="bold">↓</text>
<rect x="116.0" y="59.0" width="18" height="18" fill="none" stroke="#ff4fff" stroke-width="0.7" opacity="0.35" rx="3"/>
<circle cx="121.8" cy="68.0" r="3.8" fill="#ff4fff" filter="url(#glow)" opacity="0.9"/>
<text x="121.8" y="70.5" text-anchor="middle" font-size="5.5" font-family="sans-serif" fill="#060d1a" font-weight="bold">↑</text>
<circle cx="128.2" cy="68.0" r="3.8" fill="#ff4fff" filter="url(#glow)" opacity="0.9"/>
<text x="128.2" y="70.5" text-anchor="middle" font-size="5.5" font-family="sans-serif" fill="#060d1a" font-weight="bold">↓</text>
<text x="138.0" y="71.0" font-family="monospace" font-size="6.5" fill="#ff4fff" opacity="0.55">6e⁻</text>
<text x="10" y="103.0" font-family="monospace" font-size="7" fill="#446" opacity="0.7">n=3</text>
<text x="32" y="89.0" font-family="monospace" font-size="6.5" fill="#00ffff" opacity="0.85">3s</text>
<rect x="32.0" y="91.0" width="18" height="18" fill="none" stroke="#00ffff" stroke-width="0.7" opacity="0.35" rx="3"/>
<circle cx="37.8" cy="100.0" r="3.8" fill="#00ffff" filter="url(#glow)" opacity="0.9"/>
<text x="37.8" y="102.5" text-anchor="middle" font-size="5.5" font-family="sans-serif" fill="#060d1a" font-weight="bold">↑</text>
<circle cx="44.2" cy="100.0" r="3.8" fill="#00ffff" filter="url(#glow)" opacity="0.9"/>
<text x="44.2" y="102.5" text-anchor="middle" font-size="5.5" font-family="sans-serif" fill="#060d1a" font-weight="bold">↓</text>
<text x="54.0" y="103.0" font-family="monospace" font-size="6.5" fill="#00ffff" opacity="0.55">2e⁻</text>
<text x="76" y="89.0" font-family="monospace" font-size="6.5" fill="#ff4fff" opacity="0.85">3p</text>
<rect x="76.0" y="91.0" width="18" height="18" fill="none" stroke="#ff4fff" stroke-width="0.7" opacity="0.35" rx="3"/>
<circle cx="81.8" cy="100.0" r="3.8" fill="#ff4fff" filter="url(#glow)" opacity="0.9"/>
<text x="81.8" y="102.5" text-anchor="middle" font-size="5.5" font-family="sans-serif" fill="#060d1a" font-weight="bold">↑</text>
<circle cx="88.2" cy="100.0" r="3.8" fill="#ff4fff" filter="url(#glow)" opacity="0.9"/>
<text x="88.2" y="102.5" text-anchor="middle" font-size="5.5" font-family="sans-serif" fill="#060d1a" font-weight="bold">↓</text>
<rect x="96.0" y="91.0" width="18" height="18" fill="none" stroke="#ff4fff" stroke-width="0.7" opacity="0.35" rx="3"/>
<circle cx="101.8" cy="100.0" r="3.8" fill="#ff4fff" filter="url(#glow)" opacity="0.9"/>
<text x="101.8" y="102.5" text-anchor="middle" font-size="5.5" font-family="sans-serif" fill="#060d1a" font-weight="bold">↑</text>
<circle cx="108.2" cy="100.0" r="3.8" fill="#ff4fff" filter="url(#glow)" opacity="0.9"/>
<text x="108.2" y="102.5" text-anchor="middle" font-size="5.5" font-family="sans-serif" fill="#060d1a" font-weight="bold">↓</text>
<rect x="116.0" y="91.0" width="18" height="18" fill="none" stroke="#ff4fff" stroke-width="0.7" opacity="0.35" rx="3"/>
<circle cx="121.8" cy="100.0" r="3.8" fill="#ff4fff" filter="url(#glow)" opacity="0.9"/>
<text x="121.8" y="102.5" text-anchor="middle" font-size="5.5" font-family="sans-serif" fill="#060d1a" font-weight="bold">↑</text>
<circle cx="128.2" cy="100.0" r="3.8" fill="#ff4fff" filter="url(#glow)" opacity="0.9"/>
<text x="128.2" y="102.5" text-anchor="middle" font-size="5.5" font-family="sans-serif" fill="#060d1a" font-weight="bold">↓</text>
<text x="138.0" y="103.0" font-family="monospace" font-size="6.5" fill="#ff4fff" opacity="0.55">6e⁻</text>
<text x="160" y="89.0" font-family="monospace" font-size="6.5" fill="#ffa500" opacity="0.85">3d</text>
<rect x="160.0" y="91.0" width="18" height="18" fill="none" stroke="#ffa500" stroke-width="0.7" opacity="0.35" rx="3"/>
<circle cx="165.8" cy="100.0" r="3.8" fill="#ffa500" filter="url(#glow)" opacity="0.9"/>
<text x="165.8" y="102.5" text-anchor="middle" font-size="5.5" font-family="sans-serif" fill="#060d1a" font-weight="bold">↑</text>
<circle cx="172.2" cy="100.0" r="3.8" fill="#ffa500" filter="url(#glow)" opacity="0.9"/>
<text x="172.2" y="102.5" text-anchor="middle" font-size="5.5" font-family="sans-serif" fill="#060d1a" font-weight="bold">↓</text>
<rect x="180.0" y="91.0" width="18" height="18" fill="none" stroke="#ffa500" stroke-width="0.7" opacity="0.35" rx="3"/>
<circle cx="185.8" cy="100.0" r="3.8" fill="#ffa500" filter="url(#glow)" opacity="0.9"/>
<text x="185.8" y="102.5" text-anchor="middle" font-size="5.5" font-family="sans-serif" fill="#060d1a" font-weight="bold">↑</text>
<circle cx="192.2" cy="100.0" r="3.8" fill="#ffa500" filter="url(#glow)" opacity="0.9"/>
<text x="192.2" y="102.5" text-anchor="middle" font-size="5.5" font-family="sans-serif" fill="#060d1a" font-weight="bold">↓</text>
<rect x="200.0" y="91.0" width="18" height="18" fill="none" stroke="#ffa500" stroke-width="0.7" opacity="0.35" rx="3"/>
<circle cx="205.8" cy="100.0" r="3.8" fill="#ffa500" filter="url(#glow)" opacity="0.9"/>
<text x="205.8" y="102.5" text-anchor="middle" font-size="5.5" font-family="sans-serif" fill="#060d1a" font-weight="bold">↑</text>
<circle cx="212.2" cy="100.0" r="3.8" fill="#ffa500" filter="url(#glow)" opacity="0.9"/>
<text x="212.2" y="102.5" text-anchor="middle" font-size="5.5" font-family="sans-serif" fill="#060d1a" font-weight="bold">↓</text>
<rect x="220.0" y="91.0" width="18" height="18" fill="none" stroke="#ffa500" stroke-width="0.7" opacity="0.35" rx="3"/>
<circle cx="225.8" cy="100.0" r="3.8" fill="#ffa500" filter="url(#glow)" opacity="0.9"/>
<text x="225.8" y="102.5" text-anchor="middle" font-size="5.5" font-family="sans-serif" fill="#060d1a" font-weight="bold">↑</text>
<circle cx="232.2" cy="100.0" r="3.8" fill="#ffa500" filter="url(#glow)" opacity="0.9"/>
<text x="232.2" y="102.5" text-anchor="middle" font-size="5.5" font-family="sans-serif" fill="#060d1a" font-weight="bold">↓</text>
<rect x="240.0" y="91.0" width="18" height="18" fill="none" stroke="#ffa500" stroke-width="0.7" opacity="0.35" rx="3"/>
<circle cx="245.8" cy="100.0" r="3.8" fill="#ffa500" filter="url(#glow)" opacity="0.9"/>
<text x="245.8" y="102.5" text-anchor="middle" font-size="5.5" font-family="sans-serif" fill="#060d1a" font-weight="bold">↑</text>
<circle cx="252.2" cy="100.0" r="3.8" fill="#ffa500" filter="url(#glow)" opacity="0.9"/>
<text x="252.2" y="102.5" text-anchor="middle" font-size="5.5" font-family="sans-serif" fill="#060d1a" font-weight="bold">↓</text>
<text x="262.0" y="103.0" font-family="monospace" font-size="6.5" fill="#ffa500" opacity="0.55">10e⁻</text>
<text x="10" y="135.0" font-family="monospace" font-size="7" fill="#446" opacity="0.7">n=4</text>
<text x="32" y="121.0" font-family="monospace" font-size="6.5" fill="#00ffff" opacity="0.85">4s</text>
<rect x="32.0" y="123.0" width="18" height="18" fill="none" stroke="#00ffff" stroke-width="0.7" opacity="0.35" rx="3"/>
<circle cx="37.8" cy="132.0" r="3.8" fill="#00ffff" filter="url(#glow)" opacity="0.9"/>
<text x="37.8" y="134.5" text-anchor="middle" font-size="5.5" font-family="sans-serif" fill="#060d1a" font-weight="bold">↑</text>
<circle cx="44.2" cy="132.0" r="3.8" fill="#00ffff" filter="url(#glow)" opacity="0.9"/>
<text x="44.2" y="134.5" text-anchor="middle" font-size="5.5" font-family="sans-serif" fill="#060d1a" font-weight="bold">↓</text>
<text x="54.0" y="135.0" font-family="monospace" font-size="6.5" fill="#00ffff" opacity="0.55">2e⁻</text>
<text x="76" y="121.0" font-family="monospace" font-size="6.5" fill="#ff4fff" opacity="0.85">4p</text>
<rect x="76.0" y="123.0" width="18" height="18" fill="none" stroke="#ff4fff" stroke-width="0.7" opacity="0.35" rx="3"/>
<circle cx="81.8" cy="132.0" r="3.8" fill="#ff4fff" filter="url(#glow)" opacity="0.9"/>
<text x="81.8" y="134.5" text-anchor="middle" font-size="5.5" font-family="sans-serif" fill="#060d1a" font-weight="bold">↑</text>
<circle cx="88.2" cy="132.0" r="3.8" fill="#ff4fff" filter="url(#glow)" opacity="0.9"/>
<text x="88.2" y="134.5" text-anchor="middle" font-size="5.5" font-family="sans-serif" fill="#060d1a" font-weight="bold">↓</text>
<rect x="96.0" y="123.0" width="18" height="18" fill="none" stroke="#ff4fff" stroke-width="0.7" opacity="0.35" rx="3"/>
<circle cx="101.8" cy="132.0" r="3.8" fill="#ff4fff" filter="url(#glow)" opacity="0.9"/>
<text x="101.8" y="134.5" text-anchor="middle" font-size="5.5" font-family="sans-serif" fill="#060d1a" font-weight="bold">↑</text>
<circle cx="108.2" cy="132.0" r="3.8" fill="#ff4fff" filter="url(#glow)" opacity="0.9"/>
<text x="108.2" y="134.5" text-anchor="middle" font-size="5.5" font-family="sans-serif" fill="#060d1a" font-weight="bold">↓</text>
<rect x="116.0" y="123.0" width="18" height="18" fill="none" stroke="#ff4fff" stroke-width="0.7" opacity="0.35" rx="3"/>
<circle cx="121.8" cy="132.0" r="3.8" fill="#ff4fff" filter="url(#glow)" opacity="0.9"/>
<text x="121.8" y="134.5" text-anchor="middle" font-size="5.5" font-family="sans-serif" fill="#060d1a" font-weight="bold">↑</text>
<circle cx="128.2" cy="132.0" r="3.8" fill="#ff4fff" filter="url(#glow)" opacity="0.9"/>
<text x="128.2" y="134.5" text-anchor="middle" font-size="5.5" font-family="sans-serif" fill="#060d1a" font-weight="bold">↓</text>
<text x="138.0" y="135.0" font-family="monospace" font-size="6.5" fill="#ff4fff" opacity="0.55">6e⁻</text>
<text x="160" y="121.0" font-family="monospace" font-size="6.5" fill="#ffa500" opacity="0.85">4d</text>
<rect x="160.0" y="123.0" width="18" height="18" fill="none" stroke="#ffa500" stroke-width="0.7" opacity="0.35" rx="3"/>
<circle cx="165.8" cy="132.0" r="3.8" fill="#ffa500" filter="url(#glow)" opacity="0.9"/>
<text x="165.8" y="134.5" text-anchor="middle" font-size="5.5" font-family="sans-serif" fill="#060d1a" font-weight="bold">↑</text>
<circle cx="172.2" cy="132.0" r="3.8" fill="#ffa500" filter="url(#glow)" opacity="0.9"/>
<text x="172.2" y="134.5" text-anchor="middle" font-size="5.5" font-family="sans-serif" fill="#060d1a" font-weight="bold">↓</text>
<rect x="180.0" y="123.0" width="18" height="18" fill="none" stroke="#ffa500" stroke-width="0.7" opacity="0.35" rx="3"/>
<circle cx="185.8" cy="132.0" r="3.8" fill="#ffa500" filter="url(#glow)" opacity="0.9"/>
<text x="185.8" y="134.5" text-anchor="middle" font-size="5.5" font-family="sans-serif" fill="#060d1a" font-weight="bold">↑</text>
<circle cx="192.2" cy="132.0" r="3.8" fill="#ffa500" filter="url(#glow)" opacity="0.9"/>
<text x="192.2" y="134.5" text-anchor="middle" font-size="5.5" font-family="sans-serif" fill="#060d1a" font-weight="bold">↓</text>
<rect x="200.0" y="123.0" width="18" height="18" fill="none" stroke="#ffa500" stroke-width="0.7" opacity="0.35" rx="3"/>
<circle cx="205.8" cy="132.0" r="3.8" fill="#ffa500" filter="url(#glow)" opacity="0.9"/>
<text x="205.8" y="134.5" text-anchor="middle" font-size="5.5" font-family="sans-serif" fill="#060d1a" font-weight="bold">↑</text>
<circle cx="212.2" cy="132.0" r="3.8" fill="#ffa500" filter="url(#glow)" opacity="0.9"/>
<text x="212.2" y="134.5" text-anchor="middle" font-size="5.5" font-family="sans-serif" fill="#060d1a" font-weight="bold">↓</text>
<rect x="220.0" y="123.0" width="18" height="18" fill="none" stroke="#ffa500" stroke-width="0.7" opacity="0.35" rx="3"/>
<circle cx="225.8" cy="132.0" r="3.8" fill="#ffa500" filter="url(#glow)" opacity="0.9"/>
<text x="225.8" y="134.5" text-anchor="middle" font-size="5.5" font-family="sans-serif" fill="#060d1a" font-weight="bold">↑</text>
<circle cx="232.2" cy="132.0" r="3.8" fill="#ffa500" filter="url(#glow)" opacity="0.9"/>
<text x="232.2" y="134.5" text-anchor="middle" font-size="5.5" font-family="sans-serif" fill="#060d1a" font-weight="bold">↓</text>
<rect x="240.0" y="123.0" width="18" height="18" fill="none" stroke="#ffa500" stroke-width="0.7" opacity="0.35" rx="3"/>
<circle cx="245.8" cy="132.0" r="3.8" fill="#ffa500" filter="url(#glow)" opacity="0.9"/>
<text x="245.8" y="134.5" text-anchor="middle" font-size="5.5" font-family="sans-serif" fill="#060d1a" font-weight="bold">↑</text>
<circle cx="252.2" cy="132.0" r="3.8" fill="#ffa500" filter="url(#glow)" opacity="0.9"/>
<text x="252.2" y="134.5" text-anchor="middle" font-size="5.5" font-family="sans-serif" fill="#060d1a" font-weight="bold">↓</text>
<text x="262.0" y="135.0" font-family="monospace" font-size="6.5" fill="#ffa500" opacity="0.55">10e⁻</text>
<text x="10" y="167.0" font-family="monospace" font-size="7" fill="#446" opacity="0.7">n=4</text>
<text x="32" y="153.0" font-family="monospace" font-size="6.5" fill="#66ff66" opacity="0.85">4f</text>
<rect x="32.0" y="155.0" width="18" height="18" fill="none" stroke="#66ff66" stroke-width="0.7" opacity="0.35" rx="3"/>
<circle cx="37.8" cy="164.0" r="3.8" fill="#66ff66" filter="url(#glow)" opacity="0.9"/>
<text x="37.8" y="166.5" text-anchor="middle" font-size="5.5" font-family="sans-serif" fill="#060d1a" font-weight="bold">↑</text>
<circle cx="44.2" cy="164.0" r="3.8" fill="#66ff66" filter="url(#glow)" opacity="0.9"/>
<text x="44.2" y="166.5" text-anchor="middle" font-size="5.5" font-family="sans-serif" fill="#060d1a" font-weight="bold">↓</text>
<rect x="52.0" y="155.0" width="18" height="18" fill="none" stroke="#66ff66" stroke-width="0.7" opacity="0.35" rx="3"/>
<circle cx="57.8" cy="164.0" r="3.8" fill="#66ff66" filter="url(#glow)" opacity="0.9"/>
<text x="57.8" y="166.5" text-anchor="middle" font-size="5.5" font-family="sans-serif" fill="#060d1a" font-weight="bold">↑</text>
<circle cx="64.2" cy="164.0" r="3.8" fill="#66ff66" filter="url(#glow)" opacity="0.9"/>
<text x="64.2" y="166.5" text-anchor="middle" font-size="5.5" font-family="sans-serif" fill="#060d1a" font-weight="bold">↓</text>
<rect x="72.0" y="155.0" width="18" height="18" fill="none" stroke="#66ff66" stroke-width="0.7" opacity="0.35" rx="3"/>
<circle cx="77.8" cy="164.0" r="3.8" fill="#66ff66" filter="url(#glow)" opacity="0.9"/>
<text x="77.8" y="166.5" text-anchor="middle" font-size="5.5" font-family="sans-serif" fill="#060d1a" font-weight="bold">↑</text>
<circle cx="84.2" cy="164.0" r="3.8" fill="#66ff66" filter="url(#glow)" opacity="0.9"/>
<text x="84.2" y="166.5" text-anchor="middle" font-size="5.5" font-family="sans-serif" fill="#060d1a" font-weight="bold">↓</text>
<rect x="92.0" y="155.0" width="18" height="18" fill="none" stroke="#66ff66" stroke-width="0.7" opacity="0.35" rx="3"/>
<circle cx="97.8" cy="164.0" r="3.8" fill="#66ff66" filter="url(#glow)" opacity="0.9"/>
<text x="97.8" y="166.5" text-anchor="middle" font-size="5.5" font-family="sans-serif" fill="#060d1a" font-weight="bold">↑</text>
<circle cx="104.2" cy="164.0" r="3.8" fill="#66ff66" filter="url(#glow)" opacity="0.9"/>
<text x="104.2" y="166.5" text-anchor="middle" font-size="5.5" font-family="sans-serif" fill="#060d1a" font-weight="bold">↓</text>
<rect x="112.0" y="155.0" width="18" height="18" fill="none" stroke="#66ff66" stroke-width="0.7" opacity="0.35" rx="3"/>
<circle cx="117.8" cy="164.0" r="3.8" fill="#66ff66" filter="url(#glow)" opacity="0.9"/>
<text x="117.8" y="166.5" text-anchor="middle" font-size="5.5" font-family="sans-serif" fill="#060d1a" font-weight="bold">↑</text>
<circle cx="124.2" cy="164.0" r="3.8" fill="#66ff66" filter="url(#glow)" opacity="0.9"/>
<text x="124.2" y="166.5" text-anchor="middle" font-size="5.5" font-family="sans-serif" fill="#060d1a" font-weight="bold">↓</text>
<rect x="132.0" y="155.0" width="18" height="18" fill="none" stroke="#66ff66" stroke-width="0.7" opacity="0.35" rx="3"/>
<circle cx="137.8" cy="164.0" r="3.8" fill="#66ff66" filter="url(#glow)" opacity="0.9"/>
<text x="137.8" y="166.5" text-anchor="middle" font-size="5.5" font-family="sans-serif" fill="#060d1a" font-weight="bold">↑</text>
<circle cx="144.2" cy="164.0" r="3.8" fill="#66ff66" filter="url(#glow)" opacity="0.9"/>
<text x="144.2" y="166.5" text-anchor="middle" font-size="5.5" font-family="sans-serif" fill="#060d1a" font-weight="bold">↓</text>
<rect x="152.0" y="155.0" width="18" height="18" fill="none" stroke="#66ff66" stroke-width="0.7" opacity="0.35" rx="3"/>
<circle cx="157.8" cy="164.0" r="3.8" fill="#66ff66" filter="url(#glow)" opacity="0.9"/>
<text x="157.8" y="166.5" text-anchor="middle" font-size="5.5" font-family="sans-serif" fill="#060d1a" font-weight="bold">↑</text>
<circle cx="164.2" cy="164.0" r="3.8" fill="#66ff66" filter="url(#glow)" opacity="0.9"/>
<text x="164.2" y="166.5" text-anchor="middle" font-size="5.5" font-family="sans-serif" fill="#060d1a" font-weight="bold">↓</text>
<text x="174.0" y="167.0" font-family="monospace" font-size="6.5" fill="#66ff66" opacity="0.55">14e⁻</text>
<text x="10" y="199.0" font-family="monospace" font-size="7" fill="#446" opacity="0.7">n=5</text>
<text x="32" y="185.0" font-family="monospace" font-size="6.5" fill="#00ffff" opacity="0.85">5s</text>
<rect x="32.0" y="187.0" width="18" height="18" fill="none" stroke="#00ffff" stroke-width="0.7" opacity="0.35" rx="3"/>
<circle cx="37.8" cy="196.0" r="3.8" fill="#00ffff" filter="url(#glow)" opacity="0.9"/>
<text x="37.8" y="198.5" text-anchor="middle" font-size="5.5" font-family="sans-serif" fill="#060d1a" font-weight="bold">↑</text>
<circle cx="44.2" cy="196.0" r="3.8" fill="#00ffff" filter="url(#glow)" opacity="0.9"/>
<text x="44.2" y="198.5" text-anchor="middle" font-size="5.5" font-family="sans-serif" fill="#060d1a" font-weight="bold">↓</text>
<text x="54.0" y="199.0" font-family="monospace" font-size="6.5" fill="#00ffff" opacity="0.55">2e⁻</text>
<text x="76" y="185.0" font-family="monospace" font-size="6.5" fill="#ff4fff" opacity="0.85">5p</text>
<rect x="76.0" y="187.0" width="18" height="18" fill="none" stroke="#ff4fff" stroke-width="0.7" opacity="0.35" rx="3"/>
<circle cx="81.8" cy="196.0" r="3.8" fill="#ff4fff" filter="url(#glow)" opacity="0.9"/>
<text x="81.8" y="198.5" text-anchor="middle" font-size="5.5" font-family="sans-serif" fill="#060d1a" font-weight="bold">↑</text>
<circle cx="88.2" cy="196.0" r="3.8" fill="#ff4fff" filter="url(#glow)" opacity="0.9"/>
<text x="88.2" y="198.5" text-anchor="middle" font-size="5.5" font-family="sans-serif" fill="#060d1a" font-weight="bold">↓</text>
<rect x="96.0" y="187.0" width="18" height="18" fill="none" stroke="#ff4fff" stroke-width="0.7" opacity="0.35" rx="3"/>
<circle cx="101.8" cy="196.0" r="3.8" fill="#ff4fff" filter="url(#glow)" opacity="0.9"/>
<text x="101.8" y="198.5" text-anchor="middle" font-size="5.5" font-family="sans-serif" fill="#060d1a" font-weight="bold">↑</text>
<circle cx="108.2" cy="196.0" r="3.8" fill="#ff4fff" filter="url(#glow)" opacity="0.9"/>
<text x="108.2" y="198.5" text-anchor="middle" font-size="5.5" font-family="sans-serif" fill="#060d1a" font-weight="bold">↓</text>
<rect x="116.0" y="187.0" width="18" height="18" fill="none" stroke="#ff4fff" stroke-width="0.7" opacity="0.35" rx="3"/>
<circle cx="121.8" cy="196.0" r="3.8" fill="#ff4fff" filter="url(#glow)" opacity="0.9"/>
<text x="121.8" y="198.5" text-anchor="middle" font-size="5.5" font-family="sans-serif" fill="#060d1a" font-weight="bold">↑</text>
<circle cx="128.2" cy="196.0" r="3.8" fill="#ff4fff" filter="url(#glow)" opacity="0.9"/>
<text x="128.2" y="198.5" text-anchor="middle" font-size="5.5" font-family="sans-serif" fill="#060d1a" font-weight="bold">↓</text>
<text x="138.0" y="199.0" font-family="monospace" font-size="6.5" fill="#ff4fff" opacity="0.55">6e⁻</text>
<text x="160" y="185.0" font-family="monospace" font-size="6.5" fill="#ffa500" opacity="0.85">5d</text>
<rect x="160.0" y="187.0" width="18" height="18" fill="none" stroke="#ffa500" stroke-width="0.7" opacity="0.35" rx="3"/>
<circle cx="165.8" cy="196.0" r="3.8" fill="#ffa500" filter="url(#glow)" opacity="0.9"/>
<text x="165.8" y="198.5" text-anchor="middle" font-size="5.5" font-family="sans-serif" fill="#060d1a" font-weight="bold">↑</text>
<circle cx="172.2" cy="196.0" r="3.8" fill="#ffa500" filter="url(#glow)" opacity="0.9"/>
<text x="172.2" y="198.5" text-anchor="middle" font-size="5.5" font-family="sans-serif" fill="#060d1a" font-weight="bold">↓</text>
<rect x="180.0" y="187.0" width="18" height="18" fill="none" stroke="#ffa500" stroke-width="0.7" opacity="0.35" rx="3"/>
<circle cx="185.8" cy="196.0" r="3.8" fill="#ffa500" filter="url(#glow)" opacity="0.9"/>
<text x="185.8" y="198.5" text-anchor="middle" font-size="5.5" font-family="sans-serif" fill="#060d1a" font-weight="bold">↑</text>
<circle cx="192.2" cy="196.0" r="3.8" fill="#ffa500" filter="url(#glow)" opacity="0.9"/>
<text x="192.2" y="198.5" text-anchor="middle" font-size="5.5" font-family="sans-serif" fill="#060d1a" font-weight="bold">↓</text>
<rect x="200.0" y="187.0" width="18" height="18" fill="none" stroke="#ffa500" stroke-width="0.7" opacity="0.35" rx="3"/>
<circle cx="205.8" cy="196.0" r="3.8" fill="#ffa500" filter="url(#glow)" opacity="0.9"/>
<text x="205.8" y="198.5" text-anchor="middle" font-size="5.5" font-family="sans-serif" fill="#060d1a" font-weight="bold">↑</text>
<circle cx="212.2" cy="196.0" r="3.8" fill="#ffa500" filter="url(#glow)" opacity="0.9"/>
<text x="212.2" y="198.5" text-anchor="middle" font-size="5.5" font-family="sans-serif" fill="#060d1a" font-weight="bold">↓</text>
<rect x="220.0" y="187.0" width="18" height="18" fill="none" stroke="#ffa500" stroke-width="0.7" opacity="0.35" rx="3"/>
<circle cx="225.8" cy="196.0" r="3.8" fill="#ffa500" filter="url(#glow)" opacity="0.9"/>
<text x="225.8" y="198.5" text-anchor="middle" font-size="5.5" font-family="sans-serif" fill="#060d1a" font-weight="bold">↑</text>
<circle cx="232.2" cy="196.0" r="3.8" fill="#ffa500" filter="url(#glow)" opacity="0.9"/>
<text x="232.2" y="198.5" text-anchor="middle" font-size="5.5" font-family="sans-serif" fill="#060d1a" font-weight="bold">↓</text>
<rect x="240.0" y="187.0" width="18" height="18" fill="none" stroke="#ffa500" stroke-width="0.7" opacity="0.35" rx="3"/>
<circle cx="245.8" cy="196.0" r="3.8" fill="#ffa500" filter="url(#glow)" opacity="0.9"/>
<text x="245.8" y="198.5" text-anchor="middle" font-size="5.5" font-family="sans-serif" fill="#060d1a" font-weight="bold">↑</text>
<circle cx="252.2" cy="196.0" r="3.8" fill="#ffa500" filter="url(#glow)" opacity="0.9"/>
<text x="252.2" y="198.5" text-anchor="middle" font-size="5.5" font-family="sans-serif" fill="#060d1a" font-weight="bold">↓</text>
<text x="262.0" y="199.0" font-family="monospace" font-size="6.5" fill="#ffa500" opacity="0.55">10e⁻</text>
<text x="10" y="231.0" font-family="monospace" font-size="7" fill="#446" opacity="0.7">n=5</text>
<text x="32" y="217.0" font-family="monospace" font-size="6.5" fill="#66ff66" opacity="0.85">5f</text>
<rect x="32.0" y="219.0" width="18" height="18" fill="none" stroke="#66ff66" stroke-width="0.7" opacity="0.35" rx="3"/>
<circle cx="37.8" cy="228.0" r="3.8" fill="#66ff66" filter="url(#glow)" opacity="0.9"/>
<text x="37.8" y="230.5" text-anchor="middle" font-size="5.5" font-family="sans-serif" fill="#060d1a" font-weight="bold">↑</text>
<circle cx="44.2" cy="228.0" r="3.8" fill="#66ff66" filter="url(#glow)" opacity="0.9"/>
<text x="44.2" y="230.5" text-anchor="middle" font-size="5.5" font-family="sans-serif" fill="#060d1a" font-weight="bold">↓</text>
<rect x="52.0" y="219.0" width="18" height="18" fill="none" stroke="#66ff66" stroke-width="0.7" opacity="0.35" rx="3"/>
<circle cx="57.8" cy="228.0" r="3.8" fill="#66ff66" filter="url(#glow)" opacity="0.9"/>
<text x="57.8" y="230.5" text-anchor="middle" font-size="5.5" font-family="sans-serif" fill="#060d1a" font-weight="bold">↑</text>
<circle cx="64.2" cy="228.0" r="3.8" fill="#66ff66" filter="url(#glow)" opacity="0.9"/>
<text x="64.2" y="230.5" text-anchor="middle" font-size="5.5" font-family="sans-serif" fill="#060d1a" font-weight="bold">↓</text>
<rect x="72.0" y="219.0" width="18" height="18" fill="none" stroke="#66ff66" stroke-width="0.7" opacity="0.35" rx="3"/>
<circle cx="77.8" cy="228.0" r="3.8" fill="#66ff66" filter="url(#glow)" opacity="0.9"/>
<text x="77.8" y="230.5" text-anchor="middle" font-size="5.5" font-family="sans-serif" fill="#060d1a" font-weight="bold">↑</text>
<circle cx="84.2" cy="228.0" r="3.8" fill="#66ff66" filter="url(#glow)" opacity="0.9"/>
<text x="84.2" y="230.5" text-anchor="middle" font-size="5.5" font-family="sans-serif" fill="#060d1a" font-weight="bold">↓</text>
<rect x="92.0" y="219.0" width="18" height="18" fill="none" stroke="#66ff66" stroke-width="0.7" opacity="0.35" rx="3"/>
<circle cx="97.8" cy="228.0" r="3.8" fill="#66ff66" filter="url(#glow)" opacity="0.9"/>
<text x="97.8" y="230.5" text-anchor="middle" font-size="5.5" font-family="sans-serif" fill="#060d1a" font-weight="bold">↑</text>
<circle cx="104.2" cy="228.0" r="3.8" fill="#66ff66" filter="url(#glow)" opacity="0.9"/>
<text x="104.2" y="230.5" text-anchor="middle" font-size="5.5" font-family="sans-serif" fill="#060d1a" font-weight="bold">↓</text>
<rect x="112.0" y="219.0" width="18" height="18" fill="none" stroke="#66ff66" stroke-width="0.7" opacity="0.35" rx="3"/>
<circle cx="121.0" cy="228.0" r="4.5" fill="#66ff66" filter="url(#glow)" opacity="0.9"/>
<text x="121.0" y="230.5" text-anchor="middle" font-size="6" font-family="sans-serif" fill="#060d1a" font-weight="bold">↑</text>
<rect x="132.0" y="219.0" width="18" height="18" fill="none" stroke="#66ff66" stroke-width="0.7" opacity="0.35" rx="3"/>
<circle cx="141.0" cy="228.0" r="4.5" fill="#66ff66" filter="url(#glow)" opacity="0.9"/>
<text x="141.0" y="230.5" text-anchor="middle" font-size="6" font-family="sans-serif" fill="#060d1a" font-weight="bold">↑</text>
<rect x="152.0" y="219.0" width="18" height="18" fill="none" stroke="#66ff66" stroke-width="0.7" opacity="0.35" rx="3"/>
<circle cx="161.0" cy="228.0" r="4.5" fill="#66ff66" filter="url(#glow)" opacity="0.9"/>
<text x="161.0" y="230.5" text-anchor="middle" font-size="6" font-family="sans-serif" fill="#060d1a" font-weight="bold">↑</text>
<text x="174.0" y="231.0" font-family="monospace" font-size="6.5" fill="#66ff66" opacity="0.55">11e⁻</text>
<text x="10" y="263.0" font-family="monospace" font-size="7" fill="#446" opacity="0.7">n=6</text>
<text x="32" y="249.0" font-family="monospace" font-size="6.5" fill="#00ffff" opacity="0.85">6s</text>
<rect x="32.0" y="251.0" width="18" height="18" fill="none" stroke="#00ffff" stroke-width="0.7" opacity="0.35" rx="3"/>
<circle cx="37.8" cy="260.0" r="3.8" fill="#00ffff" filter="url(#glow)" opacity="0.9"/>
<text x="37.8" y="262.5" text-anchor="middle" font-size="5.5" font-family="sans-serif" fill="#060d1a" font-weight="bold">↑</text>
<circle cx="44.2" cy="260.0" r="3.8" fill="#00ffff" filter="url(#glow)" opacity="0.9"/>
<text x="44.2" y="262.5" text-anchor="middle" font-size="5.5" font-family="sans-serif" fill="#060d1a" font-weight="bold">↓</text>
<text x="54.0" y="263.0" font-family="monospace" font-size="6.5" fill="#00ffff" opacity="0.55">2e⁻</text>
<text x="76" y="249.0" font-family="monospace" font-size="6.5" fill="#ff4fff" opacity="0.85">6p</text>
<rect x="76.0" y="251.0" width="18" height="18" fill="none" stroke="#ff4fff" stroke-width="0.7" opacity="0.35" rx="3"/>
<circle cx="81.8" cy="260.0" r="3.8" fill="#ff4fff" filter="url(#glow)" opacity="0.9"/>
<text x="81.8" y="262.5" text-anchor="middle" font-size="5.5" font-family="sans-serif" fill="#060d1a" font-weight="bold">↑</text>
<circle cx="88.2" cy="260.0" r="3.8" fill="#ff4fff" filter="url(#glow)" opacity="0.9"/>
<text x="88.2" y="262.5" text-anchor="middle" font-size="5.5" font-family="sans-serif" fill="#060d1a" font-weight="bold">↓</text>
<rect x="96.0" y="251.0" width="18" height="18" fill="none" stroke="#ff4fff" stroke-width="0.7" opacity="0.35" rx="3"/>
<circle cx="101.8" cy="260.0" r="3.8" fill="#ff4fff" filter="url(#glow)" opacity="0.9"/>
<text x="101.8" y="262.5" text-anchor="middle" font-size="5.5" font-family="sans-serif" fill="#060d1a" font-weight="bold">↑</text>
<circle cx="108.2" cy="260.0" r="3.8" fill="#ff4fff" filter="url(#glow)" opacity="0.9"/>
<text x="108.2" y="262.5" text-anchor="middle" font-size="5.5" font-family="sans-serif" fill="#060d1a" font-weight="bold">↓</text>
<rect x="116.0" y="251.0" width="18" height="18" fill="none" stroke="#ff4fff" stroke-width="0.7" opacity="0.35" rx="3"/>
<circle cx="121.8" cy="260.0" r="3.8" fill="#ff4fff" filter="url(#glow)" opacity="0.9"/>
<text x="121.8" y="262.5" text-anchor="middle" font-size="5.5" font-family="sans-serif" fill="#060d1a" font-weight="bold">↑</text>
<circle cx="128.2" cy="260.0" r="3.8" fill="#ff4fff" filter="url(#glow)" opacity="0.9"/>
<text x="128.2" y="262.5" text-anchor="middle" font-size="5.5" font-family="sans-serif" fill="#060d1a" font-weight="bold">↓</text>
<text x="138.0" y="263.0" font-family="monospace" font-size="6.5" fill="#ff4fff" opacity="0.55">6e⁻</text>
<text x="10" y="295.0" font-family="monospace" font-size="7" fill="#446" opacity="0.7">n=7</text>
<text x="32" y="281.0" font-family="monospace" font-size="6.5" fill="#00ffff" opacity="0.85">7s</text>
<rect x="32.0" y="283.0" width="18" height="18" fill="none" stroke="#00ffff" stroke-width="0.7" opacity="0.35" rx="3"/>
<circle cx="37.8" cy="292.0" r="3.8" fill="#00ffff" filter="url(#glow)" opacity="0.9"/>
<text x="37.8" y="294.5" text-anchor="middle" font-size="5.5" font-family="sans-serif" fill="#060d1a" font-weight="bold">↑</text>
<circle cx="44.2" cy="292.0" r="3.8" fill="#00ffff" filter="url(#glow)" opacity="0.9"/>
<text x="44.2" y="294.5" text-anchor="middle" font-size="5.5" font-family="sans-serif" fill="#060d1a" font-weight="bold">↓</text>
<text x="54.0" y="295.0" font-family="monospace" font-size="6.5" fill="#00ffff" opacity="0.55">2e⁻</text>
<text x="310" y="320" text-anchor="end" font-family="monospace" font-size="7" fill="#334" opacity="0.5">Z=99</text>
</svg>