<svg xmlns="http://www.w3.org/2000/svg" viewBox="0 0 320 320" width="320" height="320" style="background:#060d1a" data-symbol="Fe" data-view="classic">
<defs>
  <filter id="glow"><feGaussianBlur stdDeviation="2" result="b"/>
  <feMerge><feMergeNode in="b"/><feMergeNode in="SourceGraphic"/></feMerge></filter>
  <filter id="ng"><feGaussianBlur stdDeviation="4" result="b"/>
  <feMerge><feMergeNode in="b"/><feMergeNode in="SourceGraphic"/></feMerge></filter>
</defs>
<g id="shell-0" class="bohr-shell" data-shell="0">
  <circle cx="160" cy="160" r="46.5" fill="none" stroke="#00e5ff" stroke-width="0.7" opacity="0.3"/>
  <circle cx="160.00" cy="113.50" r="4.0" fill="#00e5ff" filter="url(#glow)" opacity="0.85"/>
  <circle cx="160.00" cy="206.50" r="4.0" fill="#00e5ff" filter="url(#glow)" opacity="0.85"/>
</g>
<g id="shell-1" class="bohr-shell" data-shell="1">
  <circle cx="160" cy="160" r="77.0" fill="none" stroke="#00b4d8" stroke-width="0.7" opacity="0.3"/>
  <circle cx="160.00" cy="83.00" r="4.0" fill="#00b4d8" filter="url(#glow)" opacity="0.85"/>
  <circle cx="214.45" cy="105.55" r="4.0" fill="#00b4d8" filter="url(#glow)" opacity="0.85"/>
  <circle cx="237.00" cy="160.00" r="4.0" fill="#00b4d8" filter="url(#glow)" opacity="0.85"/>
  <circle cx="214.45" cy="214.45" r="4.0" fill="#00b4d8" filter="url(#glow)" opacity="0.85"/>
  <circle cx="160.00" cy="237.00" r="4.0" fill="#00b4d8" filter="url(#glow)" opacity="0.85"/>
  <circle cx="105.55" cy="214.45" r="4.0" fill="#00b4d8" filter="url(#glow)" opacity="0.85"/>
  <circle cx="83.00" cy="160.00" r="4.0" fill="#00b4d8" filter="url(#glow)" opacity="0.85"/>
  <circle cx="105.55" cy="105.55" r="4.0" fill="#00b4d8" filter="url(#glow)" opacity="0.85"/>
</g>
<g id="shell-2" class="bohr-shell" data-shell="2">
  <circle cx="160" cy="160" r="107.5" fill="none" stroke="#c77dff" stroke-width="0.7" opacity="0.3"/>
  <circle cx="160.00" cy="52.50" r="4.0" fill="#c77dff" filter="url(#glow)" opacity="0.85"/>
  <circle cx="206.64" cy="63.15" r="4.0" fill="#c77dff" filter="url(#glow)" opacity="0.85"/>
  <circle cx="244.05" cy="92.97" r="4.0" fill="#c77dff" filter="url(#glow)" opacity="0.85"/>
  <circle cx="264.80" cy="136.08" r="4.0" fill="#c77dff" filter="url(#glow)" opacity="0.85"/>
  <circle cx="264.80" cy="183.92" r="4.0" fill="#c77dff" filter="url(#glow)" opacity="0.85"/>
  <circle cx="244.05" cy="227.03" r="4.0" fill="#c77dff" filter="url(#glow)" opacity="0.85"/>
  <circle cx="206.64" cy="256.85" r="4.0" fill="#c77dff" filter="url(#glow)" opacity="0.85"/>
  <circle cx="160.00" cy="267.50" r="4.0" fill="#c77dff" filter="url(#glow)" opacity="0.85"/>
  <circle cx="113.36" cy="256.85" r="4.0" fill="#c77dff" filter="url(#glow)" opacity="0.85"/>
  <circle cx="75.95" cy="227.03" r="4.0" fill="#c77dff" filter="url(#glow)" opacity="0.85"/>
  <circle cx="55.20" cy="183.92" r="4.0" fill="#c77dff" filter="url(#glow)" opacity="0.85"/>
  <circle cx="55.20" cy="136.08" r="4.0" fill="#c77dff" filter="url(#glow)" opacity="0.85"/>
  <circle cx="75.95" cy="92.97" r="4.0" fill="#c77dff" filter="url(#glow)" opacity="0.85"/>
  <circle cx="113.36" cy="63.15" r="4.0" fill="#c77dff" filter="url(#glow)" opacity="0.85"/>
</g>
<g id="shell-3" class="bohr-shell" data-shell="3">
  <circle cx="160" cy="160" r="138.0" fill="none" stroke="#9b5de5" stroke-width="0.7" opacity="0.3"/>
  <circle cx="160.00" cy="22.00" r="4.0" fill="#9b5de5" filter="url(#glow)" opacity="0.85"/>
  <circle cx="160.00" cy="298.00" r="4.0" fill="#9b5de5" filter="url(#glow)" opacity="0.85"/>
</g>
<g id="nucleus"><circle cx="160" cy="160" r="16" fill="#e06633" filter="url(#ng)" opacity="0.9"/><text x="160" y="164.6" text-anchor="middle" font-family="monospace" font-size="12" font-weight="bold" fill="#fff">Fe</text></g>
<text x="160" y="139.0" text-anchor="middle" font-family="monospace" font-size="8" fill="#334" opacity="0.6">26</text>
<text x="160" y="314" text-anchor="middle" font-family="monospace" font-size="7" fill="#334" opacity="0.4">2 · 8 · 14 · 2</text>
</svg>