<svg xmlns="http://www.w3.org/2000/svg" viewBox="0 0 320 320" width="320" height="320" style="background:#060d1a" data-symbol="Ho" data-view="classic">
<defs>
  <filter id="glow"><feGaussianBlur stdDeviation="2" result="b"/>
  <feMerge><feMergeNode in="b"/><feMergeNode in="SourceGraphic"/></feMerge></filter>
  <filter id="ng"><feGaussianBlur stdDeviation="4" result="b"/>
  <feMerge><feMergeNode in="b"/><feMergeNode in="SourceGraphic"/></feMerge></filter>
</defs>
<g id="shell-0" class="bohr-shell" data-shell="0">
  <circle cx="160" cy="160" r="34.7" fill="none" stroke="#00e5ff" stroke-width="0.7" opacity="0.3"/>
  <circle cx="160.00" cy="125.33" r="3.0" fill="#00e5ff" filter="url(#glow)" opacity="0.85"/>
  <circle cx="160.00" cy="194.67" r="3.0" fill="#00e5ff" filter="url(#glow)" opacity="0.85"/>
</g>
<g id="shell-1" class="bohr-shell" data-shell="1">
  <circle cx="160" cy="160" r="55.3" fill="none" stroke="#00b4d8" stroke-width="0.7" opacity="0.3"/>
  <circle cx="160.00" cy="104.67" r="3.0" fill="#00b4d8" filter="url(#glow)" opacity="0.85"/>
  <circle cx="199.13" cy="120.87" r="3.0" fill="#00b4d8" filter="url(#glow)" opacity="0.85"/>
  <circle cx="215.33" cy="160.00" r="3.0" fill="#00b4d8" filter="url(#glow)" opacity="0.85"/>
  <circle cx="199.13" cy="199.13" r="3.0" fill="#00b4d8" filter="url(#glow)" opacity="0.85"/>
  <circle cx="160.00" cy="215.33" r="3.0" fill="#00b4d8" filter="url(#glow)" opacity="0.85"/>
  <circle cx="120.87" cy="199.13" r="3.0" fill="#00b4d8" filter="url(#glow)" opacity="0.85"/>
  <circle cx="104.67" cy="160.00" r="3.0" fill="#00b4d8" filter="url(#glow)" opacity="0.85"/>
  <circle cx="120.87" cy="120.87" r="3.0" fill="#00b4d8" filter="url(#glow)" opacity="0.85"/>
</g>
<g id="shell-2" class="bohr-shell" data-shell="2">
  <circle cx="160" cy="160" r="76.0" fill="none" stroke="#c77dff" stroke-width="0.7" opacity="0.3"/>
  <circle cx="160.00" cy="84.00" r="3.0" fill="#c77dff" filter="url(#glow)" opacity="0.85"/>
  <circle cx="185.99" cy="88.58" r="3.0" fill="#c77dff" filter="url(#glow)" opacity="0.85"/>
  <circle cx="208.85" cy="101.78" r="3.0" fill="#c77dff" filter="url(#glow)" opacity="0.85"/>
  <circle cx="225.82" cy="122.00" r="3.0" fill="#c77dff" filter="url(#glow)" opacity="0.85"/>
  <circle cx="234.85" cy="146.80" r="3.0" fill="#c77dff" filter="url(#glow)" opacity="0.85"/>
  <circle cx="234.85" cy="173.20" r="3.0" fill="#c77dff" filter="url(#glow)" opacity="0.85"/>
  <circle cx="225.82" cy="198.00" r="3.0" fill="#c77dff" filter="url(#glow)" opacity="0.85"/>
  <circle cx="208.85" cy="218.22" r="3.0" fill="#c77dff" filter="url(#glow)" opacity="0.85"/>
  <circle cx="185.99" cy="231.42" r="3.0" fill="#c77dff" filter="url(#glow)" opacity="0.85"/>
  <circle cx="160.00" cy="236.00" r="3.0" fill="#c77dff" filter="url(#glow)" opacity="0.85"/>
  <circle cx="134.01" cy="231.42" r="3.0" fill="#c77dff" filter="url(#glow)" opacity="0.85"/>
  <circle cx="111.15" cy="218.22" r="3.0" fill="#c77dff" filter="url(#glow)" opacity="0.85"/>
  <circle cx="94.18" cy="198.00" r="3.0" fill="#c77dff" filter="url(#glow)" opacity="0.85"/>
  <circle cx="85.15" cy="173.20" r="3.0" fill="#c77dff" filter="url(#glow)" opacity="0.85"/>
  <circle cx="85.15" cy="146.80" r="3.0" fill="#c77dff" filter="url(#glow)" opacity="0.85"/>
  <circle cx="94.18" cy="122.00" r="3.0" fill="#c77dff" filter="url(#glow)" opacity="0.85"/>
  <circle cx="111.15" cy="101.78" r="3.0" fill="#c77dff" filter="url(#glow)" opacity="0.85"/>
  <circle cx="134.01" cy="88.58" r="3.0" fill="#c77dff" filter="url(#glow)" opacity="0.85"/>
</g>
<g id="shell-3" class="bohr-shell" data-shell="3">
  <circle cx="160" cy="160" r="96.7" fill="none" stroke="#9b5de5" stroke-width="0.7" opacity="0.3"/>
  <circle cx="160.00" cy="63.33" r="3.0" fill="#9b5de5" filter="url(#glow)" opacity="0.85"/>
  <circle cx="180.78" cy="65.59" r="3.0" fill="#9b5de5" filter="url(#glow)" opacity="0.85"/>
  <circle cx="200.59" cy="72.27" r="3.0" fill="#9b5de5" filter="url(#glow)" opacity="0.85"/>
  <circle cx="218.50" cy="83.04" r="3.0" fill="#9b5de5" filter="url(#glow)" opacity="0.85"/>
  <circle cx="233.68" cy="97.42" r="3.0" fill="#9b5de5" filter="url(#glow)" opacity="0.85"/>
  <circle cx="245.41" cy="114.72" r="3.0" fill="#9b5de5" filter="url(#glow)" opacity="0.85"/>
  <circle cx="253.14" cy="134.14" r="3.0" fill="#9b5de5" filter="url(#glow)" opacity="0.85"/>
  <circle cx="256.52" cy="154.77" r="3.0" fill="#9b5de5" filter="url(#glow)" opacity="0.85"/>
  <circle cx="255.39" cy="175.64" r="3.0" fill="#9b5de5" filter="url(#glow)" opacity="0.85"/>
  <circle cx="249.80" cy="195.78" r="3.0" fill="#9b5de5" filter="url(#glow)" opacity="0.85"/>
  <circle cx="240.01" cy="214.25" r="3.0" fill="#9b5de5" filter="url(#glow)" opacity="0.85"/>
  <circle cx="226.48" cy="230.18" r="3.0" fill="#9b5de5" filter="url(#glow)" opacity="0.85"/>
  <circle cx="209.84" cy="242.83" r="3.0" fill="#9b5de5" filter="url(#glow)" opacity="0.85"/>
  <circle cx="190.87" cy="251.61" r="3.0" fill="#9b5de5" filter="url(#glow)" opacity="0.85"/>
  <circle cx="170.45" cy="256.10" r="3.0" fill="#9b5de5" filter="url(#glow)" opacity="0.85"/>
  <circle cx="149.55" cy="256.10" r="3.0" fill="#9b5de5" filter="url(#glow)" opacity="0.85"/>
  <circle cx="129.13" cy="251.61" r="3.0" fill="#9b5de5" filter="url(#glow)" opacity="0.85"/>
  <circle cx="110.16" cy="242.83" r="3.0" fill="#9b5de5" filter="url(#glow)" opacity="0.85"/>
  <circle cx="93.52" cy="230.18" r="3.0" fill="#9b5de5" filter="url(#glow)" opacity="0.85"/>
  <circle cx="79.99" cy="214.25" r="3.0" fill="#9b5de5" filter="url(#glow)" opacity="0.85"/>
  <circle cx="70.20" cy="195.78" r="3.0" fill="#9b5de5" filter="url(#glow)" opacity="0.85"/>
  <circle cx="64.61" cy="175.64" r="3.0" fill="#9b5de5" filter="url(#glow)" opacity="0.85"/>
  <circle cx="63.48" cy="154.77" r="3.0" fill="#9b5de5" filter="url(#glow)" opacity="0.85"/>
  <circle cx="66.86" cy="134.14" r="3.0" fill="#9b5de5" filter="url(#glow)" opacity="0.85"/>
  <circle cx="74.59" cy="114.72" r="3.0" fill="#9b5de5" filter="url(#glow)" opacity="0.85"/>
  <circle cx="86.32" cy="97.42" r="3.0" fill="#9b5de5" filter="url(#glow)" opacity="0.85"/>
  <circle cx="101.50" cy="83.04" r="3.0" fill="#9b5de5" filter="url(#glow)" opacity="0.85"/>
  <circle cx="119.41" cy="72.27" r="3.0" fill="#9b5de5" filter="url(#glow)" opacity="0.85"/>
  <circle cx="139.22" cy="65.59" r="3.0" fill="#9b5de5" filter="url(#glow)" opacity="0.85"/>
</g>
<g id="shell-4" class="bohr-shell" data-shell="4">
  <circle cx="160" cy="160" r="117.3" fill="none" stroke="#ff9a00" stroke-width="0.7" opacity="0.3"/>
  <circle cx="160.00" cy="42.67" r="3.0" fill="#ff9a00" filter="url(#glow)" opacity="0.85"/>
  <circle cx="242.97" cy="77.03" r="3.0" fill="#ff9a00" filter="url(#glow)" opacity="0.85"/>
  <circle cx="277.33" cy="160.00" r="3.0" fill="#ff9a00" filter="url(#glow)" opacity="0.85"/>
  <circle cx="242.97" cy="242.97" r="3.0" fill="#ff9a00" filter="url(#glow)" opacity="0.85"/>
  <circle cx="160.00" cy="277.33" r="3.0" fill="#ff9a00" filter="url(#glow)" opacity="0.85"/>
  <circle cx="77.03" cy="242.97" r="3.0" fill="#ff9a00" filter="url(#glow)" opacity="0.85"/>
  <circle cx="42.67" cy="160.00" r="3.0" fill="#ff9a00" filter="url(#glow)" opacity="0.85"/>
  <circle cx="77.03" cy="77.03" r="3.0" fill="#ff9a00" filter="url(#glow)" opacity="0.85"/>
</g>
<g id="shell-5" class="bohr-shell" data-shell="5">
  <circle cx="160" cy="160" r="138.0" fill="none" stroke="#ff6b35" stroke-width="0.7" opacity="0.3"/>
  <circle cx="160.00" cy="22.00" r="3.0" fill="#ff6b35" filter="url(#glow)" opacity="0.85"/>
  <circle cx="160.00" cy="298.00" r="3.0" fill="#ff6b35" filter="url(#glow)" opacity="0.85"/>
</g>
<g id="nucleus"><circle cx="160" cy="160" r="14" fill="#00ff9c" filter="url(#ng)" opacity="0.9"/><text x="160" y="164.6" text-anchor="middle" font-family="monospace" font-size="12" font-weight="bold" fill="#fff">Ho</text></g>
<text x="160" y="141.0" text-anchor="middle" font-family="monospace" font-size="8" fill="#334" opacity="0.6">67</text>
<text x="160" y="314" text-anchor="middle" font-family="monospace" font-size="7" fill="#334" opacity="0.4">2 · 8 · 18 · 29 · 8 · 2</text>
</svg>