<svg xmlns="http://www.w3.org/2000/svg" viewBox="0 0 320 320" width="320" height="320" style="background:#060d1a" data-symbol="Po" data-view="classic">
<defs>
  <filter id="glow"><feGaussianBlur stdDeviation="2" result="b"/>
  <feMerge><feMergeNode in="b"/><feMergeNode in="SourceGraphic"/></feMerge></filter>
  <filter id="ng"><feGaussianBlur stdDeviation="4" result="b"/>
  <feMerge><feMergeNode in="b"/><feMergeNode in="SourceGraphic"/></feMerge></filter>
</defs>
<g id="shell-0" class="bohr-shell" data-shell="0">
  <circle cx="160" cy="160" r="34.7" fill="none" stroke="#00e5ff" stroke-width="0.7" opacity="0.3"/>
  <circle cx="160.00" cy="125.33" r="3.0" fill="#00e5ff" filter="url(#glow)" opacity="0.85"/>
  <circle cx="160.00" cy="194.67" r="3.0" fill="#00e5ff" filter="url(#glow)" opacity="0.85"/>
</g>
<g id="shell-1" class="bohr-shell" data-shell="1">
  <circle cx="160" cy="160" r="55.3" fill="none" stroke="#00b4d8" stroke-width="0.7" opacity="0.3"/>
  <circle cx="160.00" cy="104.67" r="3.0" fill="#00b4d8" filter="url(#glow)" opacity="0.85"/>
  <circle cx="199.13" cy="120.87" r="3.0" fill="#00b4d8" filter="url(#glow)" opacity="0.85"/>
  <circle cx="215.33" cy="160.00" r="3.0" fill="#00b4d8" filter="url(#glow)" opacity="0.85"/>
  <circle cx="199.13" cy="199.13" r="3.0" fill="#00b4d8" filter="url(#glow)" opacity="0.85"/>
  <circle cx="160.00" cy="215.33" r="3.0" fill="#00b4d8" filter="url(#glow)" opacity="0.85"/>
  <circle cx="120.87" cy="199.13" r="3.0" fill="#00b4d8" filter="url(#glow)" opacity="0.85"/>
  <circle cx="104.67" cy="160.00" r="3.0" fill="#00b4d8" filter="url(#glow)" opacity="0.85"/>
  <circle cx="120.87" cy="120.87" r="3.0" fill="#00b4d8" filter="url(#glow)" opacity="0.85"/>
</g>
<g id="shell-2" class="bohr-shell" data-shell="2">
  <circle cx="160" cy="160" r="76.0" fill="none" stroke="#c77dff" stroke-width="0.7" opacity="0.3"/>
  <circle cx="160.00" cy="84.00" r="3.0" fill="#c77dff" filter="url(#glow)" opacity="0.85"/>
  <circle cx="185.99" cy="88.58" r="3.0" fill="#c77dff" filter="url(#glow)" opacity="0.85"/>
  <circle cx="208.85" cy="101.78" r="3.0" fill="#c77dff" filter="url(#glow)" opacity="0.85"/>
  <circle cx="225.82" cy="122.00" r="3.0" fill="#c77dff" filter="url(#glow)" opacity="0.85"/>
  <circle cx="234.85" cy="146.80" r="3.0" fill="#c77dff" filter="url(#glow)" opacity="0.85"/>
  <circle cx="234.85" cy="173.20" r="3.0" fill="#c77dff" filter="url(#glow)" opacity="0.85"/>
  <circle cx="225.82" cy="198.00" r="3.0" fill="#c77dff" filter="url(#glow)" opacity="0.85"/>
  <circle cx="208.85" cy="218.22" r="3.0" fill="#c77dff" filter="url(#glow)" opacity="0.85"/>
  <circle cx="185.99" cy="231.42" r="3.0" fill="#c77dff" filter="url(#glow)" opacity="0.85"/>
  <circle cx="160.00" cy="236.00" r="3.0" fill="#c77dff" filter="url(#glow)" opacity="0.85"/>
  <circle cx="134.01" cy="231.42" r="3.0" fill="#c77dff" filter="url(#glow)" opacity="0.85"/>
  <circle cx="111.15" cy="218.22" r="3.0" fill="#c77dff" filter="url(#glow)" opacity="0.85"/>
  <circle cx="94.18" cy="198.00" r="3.0" fill="#c77dff" filter="url(#glow)" opacity="0.85"/>
  <circle cx="85.15" cy="173.20" r="3.0" fill="#c77dff" filter="url(#glow)" opacity="0.85"/>
  <circle cx="85.15" cy="146.80" r="3.0" fill="#c77dff" filter="url(#glow)" opacity="0.85"/>
  <circle cx="94.18" cy="122.00" r="3.0" fill="#c77dff" filter="url(#glow)" opacity="0.85"/>
  <circle cx="111.15" cy="101.78" r="3.0" fill="#c77dff" filter="url(#glow)" opacity="0.85"/>
  <circle cx="134.01" cy="88.58" r="3.0" fill="#c77dff" filter="url(#glow)" opacity="0.85"/>
</g>
<g id="shell-3" class="bohr-shell" data-shell="3">
  <circle cx="160" cy="160" r="96.7" fill="none" stroke="#9b5de5" stroke-width="0.7" opacity="0.3"/>
  <circle cx="160.00" cy="63.33" r="3.0" fill="#9b5de5" filter="url(#glow)" opacity="0.85"/>
  <circle cx="178.86" cy="65.19" r="3.0" fill="#9b5de5" filter="url(#glow)" opacity="0.85"/>
  <circle cx="196.99" cy="70.69" r="3.0" fill="#9b5de5" filter="url(#glow)" opacity="0.85"/>
  <circle cx="213.71" cy="79.62" r="3.0" fill="#9b5de5" filter="url(#glow)" opacity="0.85"/>
  <circle cx="228.35" cy="91.65" r="3.0" fill="#9b5de5" filter="url(#glow)" opacity="0.85"/>
  <circle cx="240.38" cy="106.29" r="3.0" fill="#9b5de5" filter="url(#glow)" opacity="0.85"/>
  <circle cx="249.31" cy="123.01" r="3.0" fill="#9b5de5" filter="url(#glow)" opacity="0.85"/>
  <circle cx="254.81" cy="141.14" r="3.0" fill="#9b5de5" filter="url(#glow)" opacity="0.85"/>
  <circle cx="256.67" cy="160.00" r="3.0" fill="#9b5de5" filter="url(#glow)" opacity="0.85"/>
  <circle cx="254.81" cy="178.86" r="3.0" fill="#9b5de5" filter="url(#glow)" opacity="0.85"/>
  <circle cx="249.31" cy="196.99" r="3.0" fill="#9b5de5" filter="url(#glow)" opacity="0.85"/>
  <circle cx="240.38" cy="213.71" r="3.0" fill="#9b5de5" filter="url(#glow)" opacity="0.85"/>
  <circle cx="228.35" cy="228.35" r="3.0" fill="#9b5de5" filter="url(#glow)" opacity="0.85"/>
  <circle cx="213.71" cy="240.38" r="3.0" fill="#9b5de5" filter="url(#glow)" opacity="0.85"/>
  <circle cx="196.99" cy="249.31" r="3.0" fill="#9b5de5" filter="url(#glow)" opacity="0.85"/>
  <circle cx="178.86" cy="254.81" r="3.0" fill="#9b5de5" filter="url(#glow)" opacity="0.85"/>
  <circle cx="160.00" cy="256.67" r="3.0" fill="#9b5de5" filter="url(#glow)" opacity="0.85"/>
  <circle cx="141.14" cy="254.81" r="3.0" fill="#9b5de5" filter="url(#glow)" opacity="0.85"/>
  <circle cx="123.01" cy="249.31" r="3.0" fill="#9b5de5" filter="url(#glow)" opacity="0.85"/>
  <circle cx="106.29" cy="240.38" r="3.0" fill="#9b5de5" filter="url(#glow)" opacity="0.85"/>
  <circle cx="91.65" cy="228.35" r="3.0" fill="#9b5de5" filter="url(#glow)" opacity="0.85"/>
  <circle cx="79.62" cy="213.71" r="3.0" fill="#9b5de5" filter="url(#glow)" opacity="0.85"/>
  <circle cx="70.69" cy="196.99" r="3.0" fill="#9b5de5" filter="url(#glow)" opacity="0.85"/>
  <circle cx="65.19" cy="178.86" r="3.0" fill="#9b5de5" filter="url(#glow)" opacity="0.85"/>
  <circle cx="63.33" cy="160.00" r="3.0" fill="#9b5de5" filter="url(#glow)" opacity="0.85"/>
  <circle cx="65.19" cy="141.14" r="3.0" fill="#9b5de5" filter="url(#glow)" opacity="0.85"/>
  <circle cx="70.69" cy="123.01" r="3.0" fill="#9b5de5" filter="url(#glow)" opacity="0.85"/>
  <circle cx="79.62" cy="106.29" r="3.0" fill="#9b5de5" filter="url(#glow)" opacity="0.85"/>
  <circle cx="91.65" cy="91.65" r="3.0" fill="#9b5de5" filter="url(#glow)" opacity="0.85"/>
  <circle cx="106.29" cy="79.62" r="3.0" fill="#9b5de5" filter="url(#glow)" opacity="0.85"/>
  <circle cx="123.01" cy="70.69" r="3.0" fill="#9b5de5" filter="url(#glow)" opacity="0.85"/>
  <circle cx="141.14" cy="65.19" r="3.0" fill="#9b5de5" filter="url(#glow)" opacity="0.85"/>
</g>
<g id="shell-4" class="bohr-shell" data-shell="4">
  <circle cx="160" cy="160" r="117.3" fill="none" stroke="#ff9a00" stroke-width="0.7" opacity="0.3"/>
  <circle cx="160.00" cy="42.67" r="3.0" fill="#ff9a00" filter="url(#glow)" opacity="0.85"/>
  <circle cx="200.13" cy="49.74" r="3.0" fill="#ff9a00" filter="url(#glow)" opacity="0.85"/>
  <circle cx="235.42" cy="70.12" r="3.0" fill="#ff9a00" filter="url(#glow)" opacity="0.85"/>
  <circle cx="261.61" cy="101.33" r="3.0" fill="#ff9a00" filter="url(#glow)" opacity="0.85"/>
  <circle cx="275.55" cy="139.63" r="3.0" fill="#ff9a00" filter="url(#glow)" opacity="0.85"/>
  <circle cx="275.55" cy="180.37" r="3.0" fill="#ff9a00" filter="url(#glow)" opacity="0.85"/>
  <circle cx="261.61" cy="218.67" r="3.0" fill="#ff9a00" filter="url(#glow)" opacity="0.85"/>
  <circle cx="235.42" cy="249.88" r="3.0" fill="#ff9a00" filter="url(#glow)" opacity="0.85"/>
  <circle cx="200.13" cy="270.26" r="3.0" fill="#ff9a00" filter="url(#glow)" opacity="0.85"/>
  <circle cx="160.00" cy="277.33" r="3.0" fill="#ff9a00" filter="url(#glow)" opacity="0.85"/>
  <circle cx="119.87" cy="270.26" r="3.0" fill="#ff9a00" filter="url(#glow)" opacity="0.85"/>
  <circle cx="84.58" cy="249.88" r="3.0" fill="#ff9a00" filter="url(#glow)" opacity="0.85"/>
  <circle cx="58.39" cy="218.67" r="3.0" fill="#ff9a00" filter="url(#glow)" opacity="0.85"/>
  <circle cx="44.45" cy="180.37" r="3.0" fill="#ff9a00" filter="url(#glow)" opacity="0.85"/>
  <circle cx="44.45" cy="139.63" r="3.0" fill="#ff9a00" filter="url(#glow)" opacity="0.85"/>
  <circle cx="58.39" cy="101.33" r="3.0" fill="#ff9a00" filter="url(#glow)" opacity="0.85"/>
  <circle cx="84.58" cy="70.12" r="3.0" fill="#ff9a00" filter="url(#glow)" opacity="0.85"/>
  <circle cx="119.87" cy="49.74" r="3.0" fill="#ff9a00" filter="url(#glow)" opacity="0.85"/>
</g>
<g id="shell-5" class="bohr-shell" data-shell="5">
  <circle cx="160" cy="160" r="138.0" fill="none" stroke="#ff6b35" stroke-width="0.7" opacity="0.3"/>
  <circle cx="160.00" cy="22.00" r="3.0" fill="#ff6b35" filter="url(#glow)" opacity="0.85"/>
  <circle cx="279.51" cy="91.00" r="3.0" fill="#ff6b35" filter="url(#glow)" opacity="0.85"/>
  <circle cx="279.51" cy="229.00" r="3.0" fill="#ff6b35" filter="url(#glow)" opacity="0.85"/>
  <circle cx="160.00" cy="298.00" r="3.0" fill="#ff6b35" filter="url(#glow)" opacity="0.85"/>
  <circle cx="40.49" cy="229.00" r="3.0" fill="#ff6b35" filter="url(#glow)" opacity="0.85"/>
  <circle cx="40.49" cy="91.00" r="3.0" fill="#ff6b35" filter="url(#glow)" opacity="0.85"/>
</g>
<g id="nucleus"><circle cx="160" cy="160" r="14" fill="#ab5c00" filter="url(#ng)" opacity="0.9"/><text x="160" y="164.6" text-anchor="middle" font-family="monospace" font-size="12" font-weight="bold" fill="#fff">Po</text></g>
<text x="160" y="141.0" text-anchor="middle" font-family="monospace" font-size="8" fill="#334" opacity="0.6">84</text>
<text x="160" y="314" text-anchor="middle" font-family="monospace" font-size="7" fill="#334" opacity="0.4">2 · 8 · 18 · 32 · 18 · 6</text>
</svg>