<svg xmlns="http://www.w3.org/2000/svg" viewBox="0 0 320 320" width="320" height="320" style="background:#060d1a" data-symbol="Sb" data-view="classic">
<defs>
  <filter id="glow"><feGaussianBlur stdDeviation="2" result="b"/>
  <feMerge><feMergeNode in="b"/><feMergeNode in="SourceGraphic"/></feMerge></filter>
  <filter id="ng"><feGaussianBlur stdDeviation="4" result="b"/>
  <feMerge><feMergeNode in="b"/><feMergeNode in="SourceGraphic"/></feMerge></filter>
</defs>
<g id="shell-0" class="bohr-shell" data-shell="0">
  <circle cx="160" cy="160" r="39.6" fill="none" stroke="#00e5ff" stroke-width="0.7" opacity="0.3"/>
  <circle cx="160.00" cy="120.40" r="4.0" fill="#00e5ff" filter="url(#glow)" opacity="0.85"/>
  <circle cx="160.00" cy="199.60" r="4.0" fill="#00e5ff" filter="url(#glow)" opacity="0.85"/>
</g>
<g id="shell-1" class="bohr-shell" data-shell="1">
  <circle cx="160" cy="160" r="64.2" fill="none" stroke="#00b4d8" stroke-width="0.7" opacity="0.3"/>
  <circle cx="160.00" cy="95.80" r="4.0" fill="#00b4d8" filter="url(#glow)" opacity="0.85"/>
  <circle cx="205.40" cy="114.60" r="4.0" fill="#00b4d8" filter="url(#glow)" opacity="0.85"/>
  <circle cx="224.20" cy="160.00" r="4.0" fill="#00b4d8" filter="url(#glow)" opacity="0.85"/>
  <circle cx="205.40" cy="205.40" r="4.0" fill="#00b4d8" filter="url(#glow)" opacity="0.85"/>
  <circle cx="160.00" cy="224.20" r="4.0" fill="#00b4d8" filter="url(#glow)" opacity="0.85"/>
  <circle cx="114.60" cy="205.40" r="4.0" fill="#00b4d8" filter="url(#glow)" opacity="0.85"/>
  <circle cx="95.80" cy="160.00" r="4.0" fill="#00b4d8" filter="url(#glow)" opacity="0.85"/>
  <circle cx="114.60" cy="114.60" r="4.0" fill="#00b4d8" filter="url(#glow)" opacity="0.85"/>
</g>
<g id="shell-2" class="bohr-shell" data-shell="2">
  <circle cx="160" cy="160" r="88.8" fill="none" stroke="#c77dff" stroke-width="0.7" opacity="0.3"/>
  <circle cx="160.00" cy="71.20" r="4.0" fill="#c77dff" filter="url(#glow)" opacity="0.85"/>
  <circle cx="190.37" cy="76.56" r="4.0" fill="#c77dff" filter="url(#glow)" opacity="0.85"/>
  <circle cx="217.08" cy="91.98" r="4.0" fill="#c77dff" filter="url(#glow)" opacity="0.85"/>
  <circle cx="236.90" cy="115.60" r="4.0" fill="#c77dff" filter="url(#glow)" opacity="0.85"/>
  <circle cx="247.45" cy="144.58" r="4.0" fill="#c77dff" filter="url(#glow)" opacity="0.85"/>
  <circle cx="247.45" cy="175.42" r="4.0" fill="#c77dff" filter="url(#glow)" opacity="0.85"/>
  <circle cx="236.90" cy="204.40" r="4.0" fill="#c77dff" filter="url(#glow)" opacity="0.85"/>
  <circle cx="217.08" cy="228.02" r="4.0" fill="#c77dff" filter="url(#glow)" opacity="0.85"/>
  <circle cx="190.37" cy="243.44" r="4.0" fill="#c77dff" filter="url(#glow)" opacity="0.85"/>
  <circle cx="160.00" cy="248.80" r="4.0" fill="#c77dff" filter="url(#glow)" opacity="0.85"/>
  <circle cx="129.63" cy="243.44" r="4.0" fill="#c77dff" filter="url(#glow)" opacity="0.85"/>
  <circle cx="102.92" cy="228.02" r="4.0" fill="#c77dff" filter="url(#glow)" opacity="0.85"/>
  <circle cx="83.10" cy="204.40" r="4.0" fill="#c77dff" filter="url(#glow)" opacity="0.85"/>
  <circle cx="72.55" cy="175.42" r="4.0" fill="#c77dff" filter="url(#glow)" opacity="0.85"/>
  <circle cx="72.55" cy="144.58" r="4.0" fill="#c77dff" filter="url(#glow)" opacity="0.85"/>
  <circle cx="83.10" cy="115.60" r="4.0" fill="#c77dff" filter="url(#glow)" opacity="0.85"/>
  <circle cx="102.92" cy="91.98" r="4.0" fill="#c77dff" filter="url(#glow)" opacity="0.85"/>
  <circle cx="129.63" cy="76.56" r="4.0" fill="#c77dff" filter="url(#glow)" opacity="0.85"/>
</g>
<g id="shell-3" class="bohr-shell" data-shell="3">
  <circle cx="160" cy="160" r="113.4" fill="none" stroke="#9b5de5" stroke-width="0.7" opacity="0.3"/>
  <circle cx="160.00" cy="46.60" r="4.0" fill="#9b5de5" filter="url(#glow)" opacity="0.85"/>
  <circle cx="198.79" cy="53.44" r="4.0" fill="#9b5de5" filter="url(#glow)" opacity="0.85"/>
  <circle cx="232.89" cy="73.13" r="4.0" fill="#9b5de5" filter="url(#glow)" opacity="0.85"/>
  <circle cx="258.21" cy="103.30" r="4.0" fill="#9b5de5" filter="url(#glow)" opacity="0.85"/>
  <circle cx="271.68" cy="140.31" r="4.0" fill="#9b5de5" filter="url(#glow)" opacity="0.85"/>
  <circle cx="271.68" cy="179.69" r="4.0" fill="#9b5de5" filter="url(#glow)" opacity="0.85"/>
  <circle cx="258.21" cy="216.70" r="4.0" fill="#9b5de5" filter="url(#glow)" opacity="0.85"/>
  <circle cx="232.89" cy="246.87" r="4.0" fill="#9b5de5" filter="url(#glow)" opacity="0.85"/>
  <circle cx="198.79" cy="266.56" r="4.0" fill="#9b5de5" filter="url(#glow)" opacity="0.85"/>
  <circle cx="160.00" cy="273.40" r="4.0" fill="#9b5de5" filter="url(#glow)" opacity="0.85"/>
  <circle cx="121.21" cy="266.56" r="4.0" fill="#9b5de5" filter="url(#glow)" opacity="0.85"/>
  <circle cx="87.11" cy="246.87" r="4.0" fill="#9b5de5" filter="url(#glow)" opacity="0.85"/>
  <circle cx="61.79" cy="216.70" r="4.0" fill="#9b5de5" filter="url(#glow)" opacity="0.85"/>
  <circle cx="48.32" cy="179.69" r="4.0" fill="#9b5de5" filter="url(#glow)" opacity="0.85"/>
  <circle cx="48.32" cy="140.31" r="4.0" fill="#9b5de5" filter="url(#glow)" opacity="0.85"/>
  <circle cx="61.79" cy="103.30" r="4.0" fill="#9b5de5" filter="url(#glow)" opacity="0.85"/>
  <circle cx="87.11" cy="73.13" r="4.0" fill="#9b5de5" filter="url(#glow)" opacity="0.85"/>
  <circle cx="121.21" cy="53.44" r="4.0" fill="#9b5de5" filter="url(#glow)" opacity="0.85"/>
</g>
<g id="shell-4" class="bohr-shell" data-shell="4">
  <circle cx="160" cy="160" r="138.0" fill="none" stroke="#ff9a00" stroke-width="0.7" opacity="0.3"/>
  <circle cx="160.00" cy="22.00" r="4.0" fill="#ff9a00" filter="url(#glow)" opacity="0.85"/>
  <circle cx="291.25" cy="117.36" r="4.0" fill="#ff9a00" filter="url(#glow)" opacity="0.85"/>
  <circle cx="241.11" cy="271.64" r="4.0" fill="#ff9a00" filter="url(#glow)" opacity="0.85"/>
  <circle cx="78.89" cy="271.64" r="4.0" fill="#ff9a00" filter="url(#glow)" opacity="0.85"/>
  <circle cx="28.75" cy="117.36" r="4.0" fill="#ff9a00" filter="url(#glow)" opacity="0.85"/>
</g>
<g id="nucleus"><circle cx="160" cy="160" r="15" fill="#9e63b5" filter="url(#ng)" opacity="0.9"/><text x="160" y="164.6" text-anchor="middle" font-family="monospace" font-size="12" font-weight="bold" fill="#fff">Sb</text></g>
<text x="160" y="140.0" text-anchor="middle" font-family="monospace" font-size="8" fill="#334" opacity="0.6">51</text>
<text x="160" y="314" text-anchor="middle" font-family="monospace" font-size="7" fill="#334" opacity="0.4">2 · 8 · 18 · 18 · 5</text>
</svg>