<svg xmlns="http://www.w3.org/2000/svg" viewBox="0 0 320 324" width="320" height="324" style="background:#060d1a" data-symbol="Tl" data-view="orbital">
<defs>
  <filter id="glow"><feGaussianBlur stdDeviation="1.8" result="b"/>
  <feMerge><feMergeNode in="b"/><feMergeNode in="SourceGraphic"/></feMerge></filter>
  <radialGradient id="bg">
    <stop offset="0%" stop-color="#0d1730"/>
    <stop offset="100%" stop-color="#060d1a"/>
  </radialGradient>
</defs>
<rect width="320" height="324" fill="url(#bg)"/>
<text x="160" y="13" text-anchor="middle" font-family="monospace" font-size="9" fill="#a6544d" opacity="0.9">Tl — orbitales</text>
<text x="10" y="43.6" font-family="monospace" font-size="7" fill="#446" opacity="0.7">n=1</text>
<text x="32" y="29.6" font-family="monospace" font-size="6.5" fill="#00ffff" opacity="0.85">1s</text>
<rect x="32.0" y="31.6" width="18" height="18" fill="none" stroke="#00ffff" stroke-width="0.7" opacity="0.35" rx="3"/>
<circle cx="37.8" cy="40.6" r="3.8" fill="#00ffff" filter="url(#glow)" opacity="0.9"/>
<text x="37.8" y="43.1" text-anchor="middle" font-size="5.5" font-family="sans-serif" fill="#060d1a" font-weight="bold">↑</text>
<circle cx="44.2" cy="40.6" r="3.8" fill="#00ffff" filter="url(#glow)" opacity="0.9"/>
<text x="44.2" y="43.1" text-anchor="middle" font-size="5.5" font-family="sans-serif" fill="#060d1a" font-weight="bold">↓</text>
<text x="54.0" y="43.6" font-family="monospace" font-size="6.5" fill="#00ffff" opacity="0.55">2e⁻</text>
<text x="10" y="84.7" font-family="monospace" font-size="7" fill="#446" opacity="0.7">n=2</text>
<text x="32" y="70.7" font-family="monospace" font-size="6.5" fill="#00ffff" opacity="0.85">2s</text>
<rect x="32.0" y="72.7" width="18" height="18" fill="none" stroke="#00ffff" stroke-width="0.7" opacity="0.35" rx="3"/>
<circle cx="37.8" cy="81.7" r="3.8" fill="#00ffff" filter="url(#glow)" opacity="0.9"/>
<text x="37.8" y="84.2" text-anchor="middle" font-size="5.5" font-family="sans-serif" fill="#060d1a" font-weight="bold">↑</text>
<circle cx="44.2" cy="81.7" r="3.8" fill="#00ffff" filter="url(#glow)" opacity="0.9"/>
<text x="44.2" y="84.2" text-anchor="middle" font-size="5.5" font-family="sans-serif" fill="#060d1a" font-weight="bold">↓</text>
<text x="54.0" y="84.7" font-family="monospace" font-size="6.5" fill="#00ffff" opacity="0.55">2e⁻</text>
<text x="76" y="70.7" font-family="monospace" font-size="6.5" fill="#ff4fff" opacity="0.85">2p</text>
<rect x="76.0" y="72.7" width="18" height="18" fill="none" stroke="#ff4fff" stroke-width="0.7" opacity="0.35" rx="3"/>
<circle cx="81.8" cy="81.7" r="3.8" fill="#ff4fff" filter="url(#glow)" opacity="0.9"/>
<text x="81.8" y="84.2" text-anchor="middle" font-size="5.5" font-family="sans-serif" fill="#060d1a" font-weight="bold">↑</text>
<circle cx="88.2" cy="81.7" r="3.8" fill="#ff4fff" filter="url(#glow)" opacity="0.9"/>
<text x="88.2" y="84.2" text-anchor="middle" font-size="5.5" font-family="sans-serif" fill="#060d1a" font-weight="bold">↓</text>
<rect x="96.0" y="72.7" width="18" height="18" fill="none" stroke="#ff4fff" stroke-width="0.7" opacity="0.35" rx="3"/>
<circle cx="101.8" cy="81.7" r="3.8" fill="#ff4fff" filter="url(#glow)" opacity="0.9"/>
<text x="101.8" y="84.2" text-anchor="middle" font-size="5.5" font-family="sans-serif" fill="#060d1a" font-weight="bold">↑</text>
<circle cx="108.2" cy="81.7" r="3.8" fill="#ff4fff" filter="url(#glow)" opacity="0.9"/>
<text x="108.2" y="84.2" text-anchor="middle" font-size="5.5" font-family="sans-serif" fill="#060d1a" font-weight="bold">↓</text>
<rect x="116.0" y="72.7" width="18" height="18" fill="none" stroke="#ff4fff" stroke-width="0.7" opacity="0.35" rx="3"/>
<circle cx="121.8" cy="81.7" r="3.8" fill="#ff4fff" filter="url(#glow)" opacity="0.9"/>
<text x="121.8" y="84.2" text-anchor="middle" font-size="5.5" font-family="sans-serif" fill="#060d1a" font-weight="bold">↑</text>
<circle cx="128.2" cy="81.7" r="3.8" fill="#ff4fff" filter="url(#glow)" opacity="0.9"/>
<text x="128.2" y="84.2" text-anchor="middle" font-size="5.5" font-family="sans-serif" fill="#060d1a" font-weight="bold">↓</text>
<text x="138.0" y="84.7" font-family="monospace" font-size="6.5" fill="#ff4fff" opacity="0.55">6e⁻</text>
<text x="10" y="125.9" font-family="monospace" font-size="7" fill="#446" opacity="0.7">n=3</text>
<text x="32" y="111.9" font-family="monospace" font-size="6.5" fill="#00ffff" opacity="0.85">3s</text>
<rect x="32.0" y="113.9" width="18" height="18" fill="none" stroke="#00ffff" stroke-width="0.7" opacity="0.35" rx="3"/>
<circle cx="37.8" cy="122.9" r="3.8" fill="#00ffff" filter="url(#glow)" opacity="0.9"/>
<text x="37.8" y="125.4" text-anchor="middle" font-size="5.5" font-family="sans-serif" fill="#060d1a" font-weight="bold">↑</text>
<circle cx="44.2" cy="122.9" r="3.8" fill="#00ffff" filter="url(#glow)" opacity="0.9"/>
<text x="44.2" y="125.4" text-anchor="middle" font-size="5.5" font-family="sans-serif" fill="#060d1a" font-weight="bold">↓</text>
<text x="54.0" y="125.9" font-family="monospace" font-size="6.5" fill="#00ffff" opacity="0.55">2e⁻</text>
<text x="76" y="111.9" font-family="monospace" font-size="6.5" fill="#ff4fff" opacity="0.85">3p</text>
<rect x="76.0" y="113.9" width="18" height="18" fill="none" stroke="#ff4fff" stroke-width="0.7" opacity="0.35" rx="3"/>
<circle cx="81.8" cy="122.9" r="3.8" fill="#ff4fff" filter="url(#glow)" opacity="0.9"/>
<text x="81.8" y="125.4" text-anchor="middle" font-size="5.5" font-family="sans-serif" fill="#060d1a" font-weight="bold">↑</text>
<circle cx="88.2" cy="122.9" r="3.8" fill="#ff4fff" filter="url(#glow)" opacity="0.9"/>
<text x="88.2" y="125.4" text-anchor="middle" font-size="5.5" font-family="sans-serif" fill="#060d1a" font-weight="bold">↓</text>
<rect x="96.0" y="113.9" width="18" height="18" fill="none" stroke="#ff4fff" stroke-width="0.7" opacity="0.35" rx="3"/>
<circle cx="101.8" cy="122.9" r="3.8" fill="#ff4fff" filter="url(#glow)" opacity="0.9"/>
<text x="101.8" y="125.4" text-anchor="middle" font-size="5.5" font-family="sans-serif" fill="#060d1a" font-weight="bold">↑</text>
<circle cx="108.2" cy="122.9" r="3.8" fill="#ff4fff" filter="url(#glow)" opacity="0.9"/>
<text x="108.2" y="125.4" text-anchor="middle" font-size="5.5" font-family="sans-serif" fill="#060d1a" font-weight="bold">↓</text>
<rect x="116.0" y="113.9" width="18" height="18" fill="none" stroke="#ff4fff" stroke-width="0.7" opacity="0.35" rx="3"/>
<circle cx="121.8" cy="122.9" r="3.8" fill="#ff4fff" filter="url(#glow)" opacity="0.9"/>
<text x="121.8" y="125.4" text-anchor="middle" font-size="5.5" font-family="sans-serif" fill="#060d1a" font-weight="bold">↑</text>
<circle cx="128.2" cy="122.9" r="3.8" fill="#ff4fff" filter="url(#glow)" opacity="0.9"/>
<text x="128.2" y="125.4" text-anchor="middle" font-size="5.5" font-family="sans-serif" fill="#060d1a" font-weight="bold">↓</text>
<text x="138.0" y="125.9" font-family="monospace" font-size="6.5" fill="#ff4fff" opacity="0.55">6e⁻</text>
<text x="160" y="111.9" font-family="monospace" font-size="6.5" fill="#ffa500" opacity="0.85">3d</text>
<rect x="160.0" y="113.9" width="18" height="18" fill="none" stroke="#ffa500" stroke-width="0.7" opacity="0.35" rx="3"/>
<circle cx="165.8" cy="122.9" r="3.8" fill="#ffa500" filter="url(#glow)" opacity="0.9"/>
<text x="165.8" y="125.4" text-anchor="middle" font-size="5.5" font-family="sans-serif" fill="#060d1a" font-weight="bold">↑</text>
<circle cx="172.2" cy="122.9" r="3.8" fill="#ffa500" filter="url(#glow)" opacity="0.9"/>
<text x="172.2" y="125.4" text-anchor="middle" font-size="5.5" font-family="sans-serif" fill="#060d1a" font-weight="bold">↓</text>
<rect x="180.0" y="113.9" width="18" height="18" fill="none" stroke="#ffa500" stroke-width="0.7" opacity="0.35" rx="3"/>
<circle cx="185.8" cy="122.9" r="3.8" fill="#ffa500" filter="url(#glow)" opacity="0.9"/>
<text x="185.8" y="125.4" text-anchor="middle" font-size="5.5" font-family="sans-serif" fill="#060d1a" font-weight="bold">↑</text>
<circle cx="192.2" cy="122.9" r="3.8" fill="#ffa500" filter="url(#glow)" opacity="0.9"/>
<text x="192.2" y="125.4" text-anchor="middle" font-size="5.5" font-family="sans-serif" fill="#060d1a" font-weight="bold">↓</text>
<rect x="200.0" y="113.9" width="18" height="18" fill="none" stroke="#ffa500" stroke-width="0.7" opacity="0.35" rx="3"/>
<circle cx="205.8" cy="122.9" r="3.8" fill="#ffa500" filter="url(#glow)" opacity="0.9"/>
<text x="205.8" y="125.4" text-anchor="middle" font-size="5.5" font-family="sans-serif" fill="#060d1a" font-weight="bold">↑</text>
<circle cx="212.2" cy="122.9" r="3.8" fill="#ffa500" filter="url(#glow)" opacity="0.9"/>
<text x="212.2" y="125.4" text-anchor="middle" font-size="5.5" font-family="sans-serif" fill="#060d1a" font-weight="bold">↓</text>
<rect x="220.0" y="113.9" width="18" height="18" fill="none" stroke="#ffa500" stroke-width="0.7" opacity="0.35" rx="3"/>
<circle cx="225.8" cy="122.9" r="3.8" fill="#ffa500" filter="url(#glow)" opacity="0.9"/>
<text x="225.8" y="125.4" text-anchor="middle" font-size="5.5" font-family="sans-serif" fill="#060d1a" font-weight="bold">↑</text>
<circle cx="232.2" cy="122.9" r="3.8" fill="#ffa500" filter="url(#glow)" opacity="0.9"/>
<text x="232.2" y="125.4" text-anchor="middle" font-size="5.5" font-family="sans-serif" fill="#060d1a" font-weight="bold">↓</text>
<rect x="240.0" y="113.9" width="18" height="18" fill="none" stroke="#ffa500" stroke-width="0.7" opacity="0.35" rx="3"/>
<circle cx="245.8" cy="122.9" r="3.8" fill="#ffa500" filter="url(#glow)" opacity="0.9"/>
<text x="245.8" y="125.4" text-anchor="middle" font-size="5.5" font-family="sans-serif" fill="#060d1a" font-weight="bold">↑</text>
<circle cx="252.2" cy="122.9" r="3.8" fill="#ffa500" filter="url(#glow)" opacity="0.9"/>
<text x="252.2" y="125.4" text-anchor="middle" font-size="5.5" font-family="sans-serif" fill="#060d1a" font-weight="bold">↓</text>
<text x="262.0" y="125.9" font-family="monospace" font-size="6.5" fill="#ffa500" opacity="0.55">10e⁻</text>
<text x="10" y="167.0" font-family="monospace" font-size="7" fill="#446" opacity="0.7">n=4</text>
<text x="32" y="153.0" font-family="monospace" font-size="6.5" fill="#00ffff" opacity="0.85">4s</text>
<rect x="32.0" y="155.0" width="18" height="18" fill="none" stroke="#00ffff" stroke-width="0.7" opacity="0.35" rx="3"/>
<circle cx="37.8" cy="164.0" r="3.8" fill="#00ffff" filter="url(#glow)" opacity="0.9"/>
<text x="37.8" y="166.5" text-anchor="middle" font-size="5.5" font-family="sans-serif" fill="#060d1a" font-weight="bold">↑</text>
<circle cx="44.2" cy="164.0" r="3.8" fill="#00ffff" filter="url(#glow)" opacity="0.9"/>
<text x="44.2" y="166.5" text-anchor="middle" font-size="5.5" font-family="sans-serif" fill="#060d1a" font-weight="bold">↓</text>
<text x="54.0" y="167.0" font-family="monospace" font-size="6.5" fill="#00ffff" opacity="0.55">2e⁻</text>
<text x="76" y="153.0" font-family="monospace" font-size="6.5" fill="#ff4fff" opacity="0.85">4p</text>
<rect x="76.0" y="155.0" width="18" height="18" fill="none" stroke="#ff4fff" stroke-width="0.7" opacity="0.35" rx="3"/>
<circle cx="81.8" cy="164.0" r="3.8" fill="#ff4fff" filter="url(#glow)" opacity="0.9"/>
<text x="81.8" y="166.5" text-anchor="middle" font-size="5.5" font-family="sans-serif" fill="#060d1a" font-weight="bold">↑</text>
<circle cx="88.2" cy="164.0" r="3.8" fill="#ff4fff" filter="url(#glow)" opacity="0.9"/>
<text x="88.2" y="166.5" text-anchor="middle" font-size="5.5" font-family="sans-serif" fill="#060d1a" font-weight="bold">↓</text>
<rect x="96.0" y="155.0" width="18" height="18" fill="none" stroke="#ff4fff" stroke-width="0.7" opacity="0.35" rx="3"/>
<circle cx="101.8" cy="164.0" r="3.8" fill="#ff4fff" filter="url(#glow)" opacity="0.9"/>
<text x="101.8" y="166.5" text-anchor="middle" font-size="5.5" font-family="sans-serif" fill="#060d1a" font-weight="bold">↑</text>
<circle cx="108.2" cy="164.0" r="3.8" fill="#ff4fff" filter="url(#glow)" opacity="0.9"/>
<text x="108.2" y="166.5" text-anchor="middle" font-size="5.5" font-family="sans-serif" fill="#060d1a" font-weight="bold">↓</text>
<rect x="116.0" y="155.0" width="18" height="18" fill="none" stroke="#ff4fff" stroke-width="0.7" opacity="0.35" rx="3"/>
<circle cx="121.8" cy="164.0" r="3.8" fill="#ff4fff" filter="url(#glow)" opacity="0.9"/>
<text x="121.8" y="166.5" text-anchor="middle" font-size="5.5" font-family="sans-serif" fill="#060d1a" font-weight="bold">↑</text>
<circle cx="128.2" cy="164.0" r="3.8" fill="#ff4fff" filter="url(#glow)" opacity="0.9"/>
<text x="128.2" y="166.5" text-anchor="middle" font-size="5.5" font-family="sans-serif" fill="#060d1a" font-weight="bold">↓</text>
<text x="138.0" y="167.0" font-family="monospace" font-size="6.5" fill="#ff4fff" opacity="0.55">6e⁻</text>
<text x="160" y="153.0" font-family="monospace" font-size="6.5" fill="#ffa500" opacity="0.85">4d</text>
<rect x="160.0" y="155.0" width="18" height="18" fill="none" stroke="#ffa500" stroke-width="0.7" opacity="0.35" rx="3"/>
<circle cx="165.8" cy="164.0" r="3.8" fill="#ffa500" filter="url(#glow)" opacity="0.9"/>
<text x="165.8" y="166.5" text-anchor="middle" font-size="5.5" font-family="sans-serif" fill="#060d1a" font-weight="bold">↑</text>
<circle cx="172.2" cy="164.0" r="3.8" fill="#ffa500" filter="url(#glow)" opacity="0.9"/>
<text x="172.2" y="166.5" text-anchor="middle" font-size="5.5" font-family="sans-serif" fill="#060d1a" font-weight="bold">↓</text>
<rect x="180.0" y="155.0" width="18" height="18" fill="none" stroke="#ffa500" stroke-width="0.7" opacity="0.35" rx="3"/>
<circle cx="185.8" cy="164.0" r="3.8" fill="#ffa500" filter="url(#glow)" opacity="0.9"/>
<text x="185.8" y="166.5" text-anchor="middle" font-size="5.5" font-family="sans-serif" fill="#060d1a" font-weight="bold">↑</text>
<circle cx="192.2" cy="164.0" r="3.8" fill="#ffa500" filter="url(#glow)" opacity="0.9"/>
<text x="192.2" y="166.5" text-anchor="middle" font-size="5.5" font-family="sans-serif" fill="#060d1a" font-weight="bold">↓</text>
<rect x="200.0" y="155.0" width="18" height="18" fill="none" stroke="#ffa500" stroke-width="0.7" opacity="0.35" rx="3"/>
<circle cx="205.8" cy="164.0" r="3.8" fill="#ffa500" filter="url(#glow)" opacity="0.9"/>
<text x="205.8" y="166.5" text-anchor="middle" font-size="5.5" font-family="sans-serif" fill="#060d1a" font-weight="bold">↑</text>
<circle cx="212.2" cy="164.0" r="3.8" fill="#ffa500" filter="url(#glow)" opacity="0.9"/>
<text x="212.2" y="166.5" text-anchor="middle" font-size="5.5" font-family="sans-serif" fill="#060d1a" font-weight="bold">↓</text>
<rect x="220.0" y="155.0" width="18" height="18" fill="none" stroke="#ffa500" stroke-width="0.7" opacity="0.35" rx="3"/>
<circle cx="225.8" cy="164.0" r="3.8" fill="#ffa500" filter="url(#glow)" opacity="0.9"/>
<text x="225.8" y="166.5" text-anchor="middle" font-size="5.5" font-family="sans-serif" fill="#060d1a" font-weight="bold">↑</text>
<circle cx="232.2" cy="164.0" r="3.8" fill="#ffa500" filter="url(#glow)" opacity="0.9"/>
<text x="232.2" y="166.5" text-anchor="middle" font-size="5.5" font-family="sans-serif" fill="#060d1a" font-weight="bold">↓</text>
<rect x="240.0" y="155.0" width="18" height="18" fill="none" stroke="#ffa500" stroke-width="0.7" opacity="0.35" rx="3"/>
<circle cx="245.8" cy="164.0" r="3.8" fill="#ffa500" filter="url(#glow)" opacity="0.9"/>
<text x="245.8" y="166.5" text-anchor="middle" font-size="5.5" font-family="sans-serif" fill="#060d1a" font-weight="bold">↑</text>
<circle cx="252.2" cy="164.0" r="3.8" fill="#ffa500" filter="url(#glow)" opacity="0.9"/>
<text x="252.2" y="166.5" text-anchor="middle" font-size="5.5" font-family="sans-serif" fill="#060d1a" font-weight="bold">↓</text>
<text x="262.0" y="167.0" font-family="monospace" font-size="6.5" fill="#ffa500" opacity="0.55">10e⁻</text>
<text x="10" y="208.1" font-family="monospace" font-size="7" fill="#446" opacity="0.7">n=4</text>
<text x="32" y="194.1" font-family="monospace" font-size="6.5" fill="#66ff66" opacity="0.85">4f</text>
<rect x="32.0" y="196.1" width="18" height="18" fill="none" stroke="#66ff66" stroke-width="0.7" opacity="0.35" rx="3"/>
<circle cx="37.8" cy="205.1" r="3.8" fill="#66ff66" filter="url(#glow)" opacity="0.9"/>
<text x="37.8" y="207.6" text-anchor="middle" font-size="5.5" font-family="sans-serif" fill="#060d1a" font-weight="bold">↑</text>
<circle cx="44.2" cy="205.1" r="3.8" fill="#66ff66" filter="url(#glow)" opacity="0.9"/>
<text x="44.2" y="207.6" text-anchor="middle" font-size="5.5" font-family="sans-serif" fill="#060d1a" font-weight="bold">↓</text>
<rect x="52.0" y="196.1" width="18" height="18" fill="none" stroke="#66ff66" stroke-width="0.7" opacity="0.35" rx="3"/>
<circle cx="57.8" cy="205.1" r="3.8" fill="#66ff66" filter="url(#glow)" opacity="0.9"/>
<text x="57.8" y="207.6" text-anchor="middle" font-size="5.5" font-family="sans-serif" fill="#060d1a" font-weight="bold">↑</text>
<circle cx="64.2" cy="205.1" r="3.8" fill="#66ff66" filter="url(#glow)" opacity="0.9"/>
<text x="64.2" y="207.6" text-anchor="middle" font-size="5.5" font-family="sans-serif" fill="#060d1a" font-weight="bold">↓</text>
<rect x="72.0" y="196.1" width="18" height="18" fill="none" stroke="#66ff66" stroke-width="0.7" opacity="0.35" rx="3"/>
<circle cx="77.8" cy="205.1" r="3.8" fill="#66ff66" filter="url(#glow)" opacity="0.9"/>
<text x="77.8" y="207.6" text-anchor="middle" font-size="5.5" font-family="sans-serif" fill="#060d1a" font-weight="bold">↑</text>
<circle cx="84.2" cy="205.1" r="3.8" fill="#66ff66" filter="url(#glow)" opacity="0.9"/>
<text x="84.2" y="207.6" text-anchor="middle" font-size="5.5" font-family="sans-serif" fill="#060d1a" font-weight="bold">↓</text>
<rect x="92.0" y="196.1" width="18" height="18" fill="none" stroke="#66ff66" stroke-width="0.7" opacity="0.35" rx="3"/>
<circle cx="97.8" cy="205.1" r="3.8" fill="#66ff66" filter="url(#glow)" opacity="0.9"/>
<text x="97.8" y="207.6" text-anchor="middle" font-size="5.5" font-family="sans-serif" fill="#060d1a" font-weight="bold">↑</text>
<circle cx="104.2" cy="205.1" r="3.8" fill="#66ff66" filter="url(#glow)" opacity="0.9"/>
<text x="104.2" y="207.6" text-anchor="middle" font-size="5.5" font-family="sans-serif" fill="#060d1a" font-weight="bold">↓</text>
<rect x="112.0" y="196.1" width="18" height="18" fill="none" stroke="#66ff66" stroke-width="0.7" opacity="0.35" rx="3"/>
<circle cx="117.8" cy="205.1" r="3.8" fill="#66ff66" filter="url(#glow)" opacity="0.9"/>
<text x="117.8" y="207.6" text-anchor="middle" font-size="5.5" font-family="sans-serif" fill="#060d1a" font-weight="bold">↑</text>
<circle cx="124.2" cy="205.1" r="3.8" fill="#66ff66" filter="url(#glow)" opacity="0.9"/>
<text x="124.2" y="207.6" text-anchor="middle" font-size="5.5" font-family="sans-serif" fill="#060d1a" font-weight="bold">↓</text>
<rect x="132.0" y="196.1" width="18" height="18" fill="none" stroke="#66ff66" stroke-width="0.7" opacity="0.35" rx="3"/>
<circle cx="137.8" cy="205.1" r="3.8" fill="#66ff66" filter="url(#glow)" opacity="0.9"/>
<text x="137.8" y="207.6" text-anchor="middle" font-size="5.5" font-family="sans-serif" fill="#060d1a" font-weight="bold">↑</text>
<circle cx="144.2" cy="205.1" r="3.8" fill="#66ff66" filter="url(#glow)" opacity="0.9"/>
<text x="144.2" y="207.6" text-anchor="middle" font-size="5.5" font-family="sans-serif" fill="#060d1a" font-weight="bold">↓</text>
<rect x="152.0" y="196.1" width="18" height="18" fill="none" stroke="#66ff66" stroke-width="0.7" opacity="0.35" rx="3"/>
<circle cx="157.8" cy="205.1" r="3.8" fill="#66ff66" filter="url(#glow)" opacity="0.9"/>
<text x="157.8" y="207.6" text-anchor="middle" font-size="5.5" font-family="sans-serif" fill="#060d1a" font-weight="bold">↑</text>
<circle cx="164.2" cy="205.1" r="3.8" fill="#66ff66" filter="url(#glow)" opacity="0.9"/>
<text x="164.2" y="207.6" text-anchor="middle" font-size="5.5" font-family="sans-serif" fill="#060d1a" font-weight="bold">↓</text>
<text x="174.0" y="208.1" font-family="monospace" font-size="6.5" fill="#66ff66" opacity="0.55">14e⁻</text>
<text x="10" y="249.3" font-family="monospace" font-size="7" fill="#446" opacity="0.7">n=5</text>
<text x="32" y="235.3" font-family="monospace" font-size="6.5" fill="#00ffff" opacity="0.85">5s</text>
<rect x="32.0" y="237.3" width="18" height="18" fill="none" stroke="#00ffff" stroke-width="0.7" opacity="0.35" rx="3"/>
<circle cx="37.8" cy="246.3" r="3.8" fill="#00ffff" filter="url(#glow)" opacity="0.9"/>
<text x="37.8" y="248.8" text-anchor="middle" font-size="5.5" font-family="sans-serif" fill="#060d1a" font-weight="bold">↑</text>
<circle cx="44.2" cy="246.3" r="3.8" fill="#00ffff" filter="url(#glow)" opacity="0.9"/>
<text x="44.2" y="248.8" text-anchor="middle" font-size="5.5" font-family="sans-serif" fill="#060d1a" font-weight="bold">↓</text>
<text x="54.0" y="249.3" font-family="monospace" font-size="6.5" fill="#00ffff" opacity="0.55">2e⁻</text>
<text x="76" y="235.3" font-family="monospace" font-size="6.5" fill="#ff4fff" opacity="0.85">5p</text>
<rect x="76.0" y="237.3" width="18" height="18" fill="none" stroke="#ff4fff" stroke-width="0.7" opacity="0.35" rx="3"/>
<circle cx="81.8" cy="246.3" r="3.8" fill="#ff4fff" filter="url(#glow)" opacity="0.9"/>
<text x="81.8" y="248.8" text-anchor="middle" font-size="5.5" font-family="sans-serif" fill="#060d1a" font-weight="bold">↑</text>
<circle cx="88.2" cy="246.3" r="3.8" fill="#ff4fff" filter="url(#glow)" opacity="0.9"/>
<text x="88.2" y="248.8" text-anchor="middle" font-size="5.5" font-family="sans-serif" fill="#060d1a" font-weight="bold">↓</text>
<rect x="96.0" y="237.3" width="18" height="18" fill="none" stroke="#ff4fff" stroke-width="0.7" opacity="0.35" rx="3"/>
<circle cx="101.8" cy="246.3" r="3.8" fill="#ff4fff" filter="url(#glow)" opacity="0.9"/>
<text x="101.8" y="248.8" text-anchor="middle" font-size="5.5" font-family="sans-serif" fill="#060d1a" font-weight="bold">↑</text>
<circle cx="108.2" cy="246.3" r="3.8" fill="#ff4fff" filter="url(#glow)" opacity="0.9"/>
<text x="108.2" y="248.8" text-anchor="middle" font-size="5.5" font-family="sans-serif" fill="#060d1a" font-weight="bold">↓</text>
<rect x="116.0" y="237.3" width="18" height="18" fill="none" stroke="#ff4fff" stroke-width="0.7" opacity="0.35" rx="3"/>
<circle cx="121.8" cy="246.3" r="3.8" fill="#ff4fff" filter="url(#glow)" opacity="0.9"/>
<text x="121.8" y="248.8" text-anchor="middle" font-size="5.5" font-family="sans-serif" fill="#060d1a" font-weight="bold">↑</text>
<circle cx="128.2" cy="246.3" r="3.8" fill="#ff4fff" filter="url(#glow)" opacity="0.9"/>
<text x="128.2" y="248.8" text-anchor="middle" font-size="5.5" font-family="sans-serif" fill="#060d1a" font-weight="bold">↓</text>
<text x="138.0" y="249.3" font-family="monospace" font-size="6.5" fill="#ff4fff" opacity="0.55">6e⁻</text>
<text x="160" y="235.3" font-family="monospace" font-size="6.5" fill="#ffa500" opacity="0.85">5d</text>
<rect x="160.0" y="237.3" width="18" height="18" fill="none" stroke="#ffa500" stroke-width="0.7" opacity="0.35" rx="3"/>
<circle cx="165.8" cy="246.3" r="3.8" fill="#ffa500" filter="url(#glow)" opacity="0.9"/>
<text x="165.8" y="248.8" text-anchor="middle" font-size="5.5" font-family="sans-serif" fill="#060d1a" font-weight="bold">↑</text>
<circle cx="172.2" cy="246.3" r="3.8" fill="#ffa500" filter="url(#glow)" opacity="0.9"/>
<text x="172.2" y="248.8" text-anchor="middle" font-size="5.5" font-family="sans-serif" fill="#060d1a" font-weight="bold">↓</text>
<rect x="180.0" y="237.3" width="18" height="18" fill="none" stroke="#ffa500" stroke-width="0.7" opacity="0.35" rx="3"/>
<circle cx="185.8" cy="246.3" r="3.8" fill="#ffa500" filter="url(#glow)" opacity="0.9"/>
<text x="185.8" y="248.8" text-anchor="middle" font-size="5.5" font-family="sans-serif" fill="#060d1a" font-weight="bold">↑</text>
<circle cx="192.2" cy="246.3" r="3.8" fill="#ffa500" filter="url(#glow)" opacity="0.9"/>
<text x="192.2" y="248.8" text-anchor="middle" font-size="5.5" font-family="sans-serif" fill="#060d1a" font-weight="bold">↓</text>
<rect x="200.0" y="237.3" width="18" height="18" fill="none" stroke="#ffa500" stroke-width="0.7" opacity="0.35" rx="3"/>
<circle cx="205.8" cy="246.3" r="3.8" fill="#ffa500" filter="url(#glow)" opacity="0.9"/>
<text x="205.8" y="248.8" text-anchor="middle" font-size="5.5" font-family="sans-serif" fill="#060d1a" font-weight="bold">↑</text>
<circle cx="212.2" cy="246.3" r="3.8" fill="#ffa500" filter="url(#glow)" opacity="0.9"/>
<text x="212.2" y="248.8" text-anchor="middle" font-size="5.5" font-family="sans-serif" fill="#060d1a" font-weight="bold">↓</text>
<rect x="220.0" y="237.3" width="18" height="18" fill="none" stroke="#ffa500" stroke-width="0.7" opacity="0.35" rx="3"/>
<circle cx="225.8" cy="246.3" r="3.8" fill="#ffa500" filter="url(#glow)" opacity="0.9"/>
<text x="225.8" y="248.8" text-anchor="middle" font-size="5.5" font-family="sans-serif" fill="#060d1a" font-weight="bold">↑</text>
<circle cx="232.2" cy="246.3" r="3.8" fill="#ffa500" filter="url(#glow)" opacity="0.9"/>
<text x="232.2" y="248.8" text-anchor="middle" font-size="5.5" font-family="sans-serif" fill="#060d1a" font-weight="bold">↓</text>
<rect x="240.0" y="237.3" width="18" height="18" fill="none" stroke="#ffa500" stroke-width="0.7" opacity="0.35" rx="3"/>
<circle cx="245.8" cy="246.3" r="3.8" fill="#ffa500" filter="url(#glow)" opacity="0.9"/>
<text x="245.8" y="248.8" text-anchor="middle" font-size="5.5" font-family="sans-serif" fill="#060d1a" font-weight="bold">↑</text>
<circle cx="252.2" cy="246.3" r="3.8" fill="#ffa500" filter="url(#glow)" opacity="0.9"/>
<text x="252.2" y="248.8" text-anchor="middle" font-size="5.5" font-family="sans-serif" fill="#060d1a" font-weight="bold">↓</text>
<text x="262.0" y="249.3" font-family="monospace" font-size="6.5" fill="#ffa500" opacity="0.55">10e⁻</text>
<text x="10" y="290.4" font-family="monospace" font-size="7" fill="#446" opacity="0.7">n=6</text>
<text x="32" y="276.4" font-family="monospace" font-size="6.5" fill="#00ffff" opacity="0.85">6s</text>
<rect x="32.0" y="278.4" width="18" height="18" fill="none" stroke="#00ffff" stroke-width="0.7" opacity="0.35" rx="3"/>
<circle cx="37.8" cy="287.4" r="3.8" fill="#00ffff" filter="url(#glow)" opacity="0.9"/>
<text x="37.8" y="289.9" text-anchor="middle" font-size="5.5" font-family="sans-serif" fill="#060d1a" font-weight="bold">↑</text>
<circle cx="44.2" cy="287.4" r="3.8" fill="#00ffff" filter="url(#glow)" opacity="0.9"/>
<text x="44.2" y="289.9" text-anchor="middle" font-size="5.5" font-family="sans-serif" fill="#060d1a" font-weight="bold">↓</text>
<text x="54.0" y="290.4" font-family="monospace" font-size="6.5" fill="#00ffff" opacity="0.55">2e⁻</text>
<text x="76" y="276.4" font-family="monospace" font-size="6.5" fill="#ff4fff" opacity="0.85">6p</text>
<rect x="76.0" y="278.4" width="18" height="18" fill="none" stroke="#ff4fff" stroke-width="0.7" opacity="0.35" rx="3"/>
<circle cx="85.0" cy="287.4" r="4.5" fill="#ff4fff" filter="url(#glow)" opacity="0.9"/>
<text x="85.0" y="289.9" text-anchor="middle" font-size="6" font-family="sans-serif" fill="#060d1a" font-weight="bold">↑</text>
<rect x="96.0" y="278.4" width="18" height="18" fill="none" stroke="#ff4fff" stroke-width="0.7" opacity="0.35" rx="3"/>
<circle cx="105.0" cy="287.4" r="4" fill="#ff4fff" opacity="0.08"/>
<rect x="116.0" y="278.4" width="18" height="18" fill="none" stroke="#ff4fff" stroke-width="0.7" opacity="0.35" rx="3"/>
<circle cx="125.0" cy="287.4" r="4" fill="#ff4fff" opacity="0.08"/>
<text x="138.0" y="290.4" font-family="monospace" font-size="6.5" fill="#ff4fff" opacity="0.55">1e⁻</text>
<text x="310" y="320" text-anchor="end" font-family="monospace" font-size="7" fill="#334" opacity="0.5">Z=81</text>
</svg>